<?xml version="1.0" encoding="UTF-8"?>
<svg width="506px" height="129px" viewBox="0 0 506 129" version="1.1" xmlns="http://www.w3.org/2000/svg" xmlns:xlink="http://www.w3.org/1999/xlink">
    <!-- Generator: Sketch 52 (66869) - http://www.bohemiancoding.com/sketch -->
    <title>Community driven DAO@3x</title>
    <desc>Created with Sketch.</desc>
    <g id="Page-1" stroke="none" stroke-width="1" fill="none" fill-rule="evenodd">
        <g id="banner2" transform="translate(-81.000000, -209.000000)" fill="#FFFFFF">
            <path d="M102.68,227.68 L109.16,228.96 C107.92,235.68 102.52,239.6 95.64,239.6 C87.68,239.6 81.4,233.48 81.4,225.6 C81.4,217.76 87.68,211.6 95.64,211.6 C102.24,211.6 107.84,215.52 109.12,221.88 L102.64,223.4 C101.8,219.52 99.08,217.64 95.64,217.64 C91.4,217.64 88,221.04 88,225.6 C88,230.16 91.4,233.6 95.64,233.6 C99.04,233.6 101.76,231.68 102.68,227.68 Z M122.016765,218.4 C127.976765,218.4 133.016765,222.64 133.016765,228.96 C133.016765,235.32 127.976765,239.56 122.016765,239.56 C115.936765,239.56 110.896765,235.32 110.896765,228.96 C110.896765,222.64 115.936765,218.4 122.016765,218.4 Z M122.016765,234.16 C124.496765,234.16 126.856765,232.12 126.856765,228.96 C126.856765,225.84 124.496765,223.76 122.016765,223.76 C119.416765,223.76 117.056765,225.84 117.056765,228.96 C117.056765,232.12 119.416765,234.16 122.016765,234.16 Z M161.67353,218.32 C165.95353,218.32 169.35353,221.56 169.35353,226.44 L169.35353,239 L162.99353,239 L162.99353,227.8 C162.99353,225.52 161.51353,224.08 159.63353,224.08 C157.27353,224.08 155.71353,225.8 155.71353,229.16 L155.71353,239 L149.31353,239 L149.31353,227.8 C149.31353,225.52 147.83353,224.08 145.91353,224.08 C143.59353,224.08 142.07353,225.8 142.07353,229.16 L142.07353,239 L135.67353,239 L135.67353,218.92 L142.07353,218.92 L142.07353,220.76 C143.43353,219.24 145.39353,218.32 147.99353,218.32 C150.79353,218.32 153.19353,219.52 154.55353,221.72 C156.15353,219.64 158.55353,218.32 161.67353,218.32 Z M199.050295,218.32 C203.330295,218.32 206.730295,221.56 206.730295,226.44 L206.730295,239 L200.370295,239 L200.370295,227.8 C200.370295,225.52 198.890295,224.08 197.010295,224.08 C194.650295,224.08 193.090295,225.8 193.090295,229.16 L193.090295,239 L186.690295,239 L186.690295,227.8 C186.690295,225.52 185.210295,224.08 183.290295,224.08 C180.970295,224.08 179.450295,225.8 179.450295,229.16 L179.450295,239 L173.050295,239 L173.050295,218.92 L179.450295,218.92 L179.450295,220.76 C180.810295,219.24 182.770295,218.32 185.370295,218.32 C188.170295,218.32 190.570295,219.52 191.930295,221.72 C193.530295,219.64 195.930295,218.32 199.050295,218.32 Z M230.34706,218.92 L230.34706,239 L223.94706,239 L223.94706,237.08 C222.42706,238.68 220.30706,239.6 217.78706,239.6 C213.10706,239.6 209.98706,236.28 209.98706,231.24 L209.98706,218.92 L216.34706,218.92 L216.34706,229.88 C216.34706,232.24 217.74706,233.84 219.78706,233.84 C222.30706,233.84 223.94706,232.12 223.94706,228.24 L223.94706,218.92 L230.34706,218.92 Z M246.883825,218.32 C251.563825,218.32 254.683825,221.64 254.683825,226.68 L254.683825,239 L248.323825,239 L248.323825,228.04 C248.323825,225.68 246.923825,224.08 244.883825,224.08 C242.363825,224.08 240.723825,225.8 240.723825,229.68 L240.723825,239 L234.323825,239 L234.323825,218.92 L240.723825,218.92 L240.723825,220.84 C242.243825,219.24 244.363825,218.32 246.883825,218.32 Z M261.90059,209.36 C264.06059,209.36 265.62059,211.04 265.62059,213 C265.62059,215.04 264.06059,216.56 261.90059,216.56 C259.74059,216.56 258.22059,215.04 258.22059,213 C258.22059,211.04 259.74059,209.36 261.90059,209.36 Z M265.10059,239 L258.70059,239 L258.70059,218.92 L265.10059,218.92 L265.10059,239 Z M282.797355,233.08 L284.277355,238.12 C282.717355,238.96 281.077355,239.6 278.797355,239.6 C273.797355,239.6 270.797355,236.88 270.797355,231.6 L270.797355,224 L267.157355,224 L267.157355,218.92 L270.797355,218.92 L270.797355,213 L277.197355,213 L277.197355,218.92 L283.117355,218.92 L283.117355,224 L277.197355,224 L277.197355,230.96 C277.197355,233.04 278.197355,233.88 279.877355,233.88 C280.757355,233.88 281.957355,233.56 282.797355,233.08 Z M307.61412,218.88 L296.01412,245.8 L289.09412,245.8 L292.33412,238.32 L284.01412,218.88 L290.89412,218.88 L295.65412,230.6 L300.73412,218.88 L307.61412,218.88 Z M339.287651,210.2 L339.287651,239 L332.887651,239 L332.887651,237.4 C331.327651,238.8 329.247651,239.6 326.647651,239.6 C321.327651,239.6 316.847651,235.32 316.847651,228.96 C316.847651,222.64 321.327651,218.32 326.647651,218.32 C329.247651,218.32 331.327651,219.12 332.887651,220.52 L332.887651,210.2 L339.287651,210.2 Z M327.967651,234.16 C330.567651,234.16 332.887651,232.08 332.887651,228.96 C332.887651,225.88 330.567651,223.76 327.967651,223.76 C325.167651,223.76 323.127651,225.88 323.127651,228.96 C323.127651,232.08 325.167651,234.16 327.967651,234.16 Z M356.584416,218.64 C357.144416,218.64 357.544416,218.68 358.024416,218.8 L357.744416,225.2 L356.584416,225.2 C352.104416,225.2 349.664416,227.52 349.664416,232.72 L349.664416,239 L343.264416,239 L343.264416,218.92 L349.664416,218.92 L349.664416,222.76 C351.104416,220.36 353.304416,218.64 356.584416,218.64 Z M363.601181,209.36 C365.761181,209.36 367.321181,211.04 367.321181,213 C367.321181,215.04 365.761181,216.56 363.601181,216.56 C361.441181,216.56 359.921181,215.04 359.921181,213 C359.921181,211.04 361.441181,209.36 363.601181,209.36 Z M366.801181,239 L360.401181,239 L360.401181,218.92 L366.801181,218.92 L366.801181,239 Z M392.217946,218.88 L383.897946,239 L377.377946,239 L369.057946,218.88 L375.817946,218.88 L380.657946,231.28 L385.457946,218.88 L392.217946,218.88 Z M413.114711,228.96 L413.114711,230.6 L398.394711,230.6 C398.914711,233 400.554711,234.48 402.714711,234.48 C404.194711,234.48 405.914711,234.12 406.994711,232.16 L412.674711,233.32 C410.954711,237.56 407.314711,239.6 402.714711,239.6 C396.914711,239.6 392.114711,235.32 392.114711,228.96 C392.114711,222.64 396.914711,218.32 402.754711,218.32 C408.434711,218.32 412.994711,222.4 413.114711,228.96 Z M402.754711,223.52 C400.954711,223.52 399.114711,224.64 398.514711,226.68 L406.794711,226.68 C406.194711,224.52 404.594711,223.52 402.754711,223.52 Z M428.331476,218.32 C433.011476,218.32 436.131476,221.64 436.131476,226.68 L436.131476,239 L429.771476,239 L429.771476,228.04 C429.771476,225.68 428.371476,224.08 426.331476,224.08 C423.811476,224.08 422.171476,225.8 422.171476,229.68 L422.171476,239 L415.771476,239 L415.771476,218.92 L422.171476,218.92 L422.171476,220.84 C423.691476,219.24 425.811476,218.32 428.331476,218.32 Z M448.445006,212.2 L459.045006,212.2 C467.885006,212.2 473.725006,217.64 473.725006,225.6 C473.725006,233.56 467.885006,239 459.045006,239 L448.445006,239 L448.445006,212.2 Z M455.045006,233.28 L458.805006,233.28 C463.805006,233.28 467.085006,230.24 467.085006,225.6 C467.085006,220.96 463.805006,217.92 458.805006,217.92 L455.045006,217.92 L455.045006,233.28 Z M502.581771,239 L495.541771,239 L493.661771,234.12 L482.381771,234.12 L480.501771,239 L473.421771,239 L484.621771,212.2 L491.381771,212.2 L502.581771,239 Z M491.461771,228.44 L488.021771,219.64 L484.621771,228.44 L491.461771,228.44 Z M516.558536,211.6 C524.558536,211.6 530.838536,217.8 530.838536,225.64 C530.838536,233.44 524.558536,239.6 516.558536,239.6 C508.558536,239.6 502.278536,233.44 502.278536,225.64 C502.278536,217.8 508.558536,211.6 516.558536,211.6 Z M516.558536,233.56 C520.918536,233.56 524.238536,230.2 524.238536,225.64 C524.238536,221.04 520.918536,217.64 516.558536,217.64 C512.198536,217.64 508.878536,221.04 508.878536,225.64 C508.878536,230.2 512.198536,233.56 516.558536,233.56 Z M102.4,264.92 L102.4,285 L96,285 L96,283.08 C94.48,284.68 92.36,285.6 89.84,285.6 C85.16,285.6 82.04,282.28 82.04,277.24 L82.04,264.92 L88.4,264.92 L88.4,275.88 C88.4,278.24 89.8,279.84 91.84,279.84 C94.36,279.84 96,278.12 96,274.24 L96,264.92 L102.4,264.92 Z M119.776765,279.08 L121.256765,284.12 C119.696765,284.96 118.056765,285.6 115.776765,285.6 C110.776765,285.6 107.776765,282.88 107.776765,277.6 L107.776765,270 L104.136765,270 L104.136765,264.92 L107.776765,264.92 L107.776765,259 L114.176765,259 L114.176765,264.92 L120.096765,264.92 L120.096765,270 L114.176765,270 L114.176765,276.96 C114.176765,279.04 115.176765,279.88 116.856765,279.88 C117.736765,279.88 118.936765,279.56 119.776765,279.08 Z M126.55353,255.36 C128.71353,255.36 130.27353,257.04 130.27353,259 C130.27353,261.04 128.71353,262.56 126.55353,262.56 C124.39353,262.56 122.87353,261.04 122.87353,259 C122.87353,257.04 124.39353,255.36 126.55353,255.36 Z M129.75353,285 L123.35353,285 L123.35353,264.92 L129.75353,264.92 L129.75353,285 Z M140.450295,285 L134.050295,285 L134.050295,256.2 L140.450295,256.2 L140.450295,285 Z M147.94706,255.36 C150.10706,255.36 151.66706,257.04 151.66706,259 C151.66706,261.04 150.10706,262.56 147.94706,262.56 C145.78706,262.56 144.26706,261.04 144.26706,259 C144.26706,257.04 145.78706,255.36 147.94706,255.36 Z M151.14706,285 L144.74706,285 L144.74706,264.92 L151.14706,264.92 L151.14706,285 Z M173.163825,279.92 L173.163825,285 L154.603825,285 L154.603825,280.88 L164.683825,270 L154.843825,270 L154.843825,264.92 L172.803825,264.92 L172.803825,269.12 L162.723825,279.92 L173.163825,279.92 Z M179.82059,255.36 C181.98059,255.36 183.54059,257.04 183.54059,259 C183.54059,261.04 181.98059,262.56 179.82059,262.56 C177.66059,262.56 176.14059,261.04 176.14059,259 C176.14059,257.04 177.66059,255.36 179.82059,255.36 Z M183.02059,285 L176.62059,285 L176.62059,264.92 L183.02059,264.92 L183.02059,285 Z M199.877355,264.32 C204.557355,264.32 207.677355,267.64 207.677355,272.68 L207.677355,285 L201.317355,285 L201.317355,274.04 C201.317355,271.68 199.917355,270.08 197.877355,270.08 C195.357355,270.08 193.717355,271.8 193.717355,275.68 L193.717355,285 L187.317355,285 L187.317355,264.92 L193.717355,264.92 L193.717355,266.84 C195.237355,265.24 197.357355,264.32 199.877355,264.32 Z M232.05412,264.92 L232.05412,283 C232.05412,289.2 227.33412,292.6 220.81412,292.6 C216.21412,292.6 212.69412,291 210.73412,287.76 L216.05412,284.88 C217.57412,286.68 218.69412,287.36 220.77412,287.36 C223.69412,287.36 225.77412,285.64 225.77412,282.48 L225.77412,281.92 C224.33412,283.16 222.33412,283.84 219.73412,283.84 C214.49412,283.84 210.05412,279.68 210.05412,274 C210.05412,268.44 214.49412,264.32 219.73412,264.32 C222.33412,264.32 224.33412,265 225.77412,266.24 L225.77412,264.92 L232.05412,264.92 Z M221.09412,278.6 C223.65412,278.6 225.77412,276.68 225.77412,274 C225.77412,271.32 223.65412,269.44 221.09412,269.44 C218.29412,269.44 216.29412,271.32 216.29412,274 C216.29412,276.68 218.29412,278.6 221.09412,278.6 Z M258.087651,279.08 L259.567651,284.12 C258.007651,284.96 256.367651,285.6 254.087651,285.6 C249.087651,285.6 246.087651,282.88 246.087651,277.6 L246.087651,270 L242.447651,270 L242.447651,264.92 L246.087651,264.92 L246.087651,259 L252.487651,259 L252.487651,264.92 L258.407651,264.92 L258.407651,270 L252.487651,270 L252.487651,276.96 C252.487651,279.04 253.487651,279.88 255.167651,279.88 C256.047651,279.88 257.247651,279.56 258.087651,279.08 Z M273.944416,264.32 C278.584416,264.32 281.704416,267.64 281.704416,272.68 L281.704416,285 L275.344416,285 L275.344416,274.04 C275.344416,271.68 273.944416,270.08 271.864416,270.08 C269.384416,270.08 267.744416,271.8 267.744416,275.68 L267.744416,285 L261.344416,285 L261.344416,256.2 L267.744416,256.2 L267.744416,266.84 C269.304416,265.24 271.384416,264.32 273.944416,264.32 Z M305.121181,274.96 L305.121181,276.6 L290.401181,276.6 C290.921181,279 292.561181,280.48 294.721181,280.48 C296.201181,280.48 297.921181,280.12 299.001181,278.16 L304.681181,279.32 C302.961181,283.56 299.321181,285.6 294.721181,285.6 C288.921181,285.6 284.121181,281.32 284.121181,274.96 C284.121181,268.64 288.921181,264.32 294.761181,264.32 C300.441181,264.32 305.001181,268.4 305.121181,274.96 Z M294.761181,269.52 C292.961181,269.52 291.121181,270.64 290.521181,272.68 L298.801181,272.68 C298.201181,270.52 296.601181,269.52 294.761181,269.52 Z M329.034711,264.32 C334.354711,264.32 338.834711,268.64 338.834711,274.96 C338.834711,281.32 334.354711,285.6 329.034711,285.6 C326.434711,285.6 324.354711,284.8 322.794711,283.4 L322.794711,285 L316.394711,285 L316.394711,256.2 L322.794711,256.2 L322.794711,266.52 C324.354711,265.12 326.434711,264.32 329.034711,264.32 Z M327.714711,280.16 C330.514711,280.16 332.554711,278.08 332.554711,274.96 C332.554711,271.88 330.514711,269.76 327.714711,269.76 C325.114711,269.76 322.794711,271.88 322.794711,274.96 C322.794711,278.08 325.114711,280.16 327.714711,280.16 Z M351.291476,264.4 C357.251476,264.4 362.291476,268.64 362.291476,274.96 C362.291476,281.32 357.251476,285.56 351.291476,285.56 C345.211476,285.56 340.171476,281.32 340.171476,274.96 C340.171476,268.64 345.211476,264.4 351.291476,264.4 Z M351.291476,280.16 C353.771476,280.16 356.131476,278.12 356.131476,274.96 C356.131476,271.84 353.771476,269.76 351.291476,269.76 C348.691476,269.76 346.331476,271.84 346.331476,274.96 C346.331476,278.12 348.691476,280.16 351.291476,280.16 Z M377.508241,264.32 C382.188241,264.32 385.308241,267.64 385.308241,272.68 L385.308241,285 L378.948241,285 L378.948241,274.04 C378.948241,271.68 377.548241,270.08 375.508241,270.08 C372.988241,270.08 371.348241,271.8 371.348241,275.68 L371.348241,285 L364.948241,285 L364.948241,264.92 L371.348241,264.92 L371.348241,266.84 C372.868241,265.24 374.988241,264.32 377.508241,264.32 Z M410.125006,256.2 L410.125006,285 L403.725006,285 L403.725006,283.4 C402.165006,284.8 400.085006,285.6 397.485006,285.6 C392.165006,285.6 387.685006,281.32 387.685006,274.96 C387.685006,268.64 392.165006,264.32 397.485006,264.32 C400.085006,264.32 402.165006,265.12 403.725006,266.52 L403.725006,256.2 L410.125006,256.2 Z M398.805006,280.16 C401.405006,280.16 403.725006,278.08 403.725006,274.96 C403.725006,271.88 401.405006,269.76 398.805006,269.76 C396.005006,269.76 393.965006,271.88 393.965006,274.96 C393.965006,278.08 396.005006,280.16 398.805006,280.16 Z M448.718536,264.32 C452.998536,264.32 456.398536,267.56 456.398536,272.44 L456.398536,285 L450.038536,285 L450.038536,273.8 C450.038536,271.52 448.558536,270.08 446.678536,270.08 C444.318536,270.08 442.758536,271.8 442.758536,275.16 L442.758536,285 L436.358536,285 L436.358536,273.8 C436.358536,271.52 434.878536,270.08 432.958536,270.08 C430.638536,270.08 429.118536,271.8 429.118536,275.16 L429.118536,285 L422.718536,285 L422.718536,264.92 L429.118536,264.92 L429.118536,266.76 C430.478536,265.24 432.438536,264.32 435.038536,264.32 C437.838536,264.32 440.238536,265.52 441.598536,267.72 C443.198536,265.64 445.598536,264.32 448.718536,264.32 Z M469.895301,264.4 C475.855301,264.4 480.895301,268.64 480.895301,274.96 C480.895301,281.32 475.855301,285.56 469.895301,285.56 C463.815301,285.56 458.775301,281.32 458.775301,274.96 C458.775301,268.64 463.815301,264.4 469.895301,264.4 Z M469.895301,280.16 C472.375301,280.16 474.735301,278.12 474.735301,274.96 C474.735301,271.84 472.375301,269.76 469.895301,269.76 C467.295301,269.76 464.935301,271.84 464.935301,274.96 C464.935301,278.12 467.295301,280.16 469.895301,280.16 Z M504.672066,256.2 L504.672066,285 L498.272066,285 L498.272066,283.4 C496.712066,284.8 494.632066,285.6 492.032066,285.6 C486.712066,285.6 482.232066,281.32 482.232066,274.96 C482.232066,268.64 486.712066,264.32 492.032066,264.32 C494.632066,264.32 496.712066,265.12 498.272066,266.52 L498.272066,256.2 L504.672066,256.2 Z M493.352066,280.16 C495.952066,280.16 498.272066,278.08 498.272066,274.96 C498.272066,271.88 495.952066,269.76 493.352066,269.76 C490.552066,269.76 488.512066,271.88 488.512066,274.96 C488.512066,278.08 490.552066,280.16 493.352066,280.16 Z M528.328831,274.96 L528.328831,276.6 L513.608831,276.6 C514.128831,279 515.768831,280.48 517.928831,280.48 C519.408831,280.48 521.128831,280.12 522.208831,278.16 L527.888831,279.32 C526.168831,283.56 522.528831,285.6 517.928831,285.6 C512.128831,285.6 507.328831,281.32 507.328831,274.96 C507.328831,268.64 512.128831,264.32 517.968831,264.32 C523.648831,264.32 528.208831,268.4 528.328831,274.96 Z M517.968831,269.52 C516.168831,269.52 514.328831,270.64 513.728831,272.68 L522.008831,272.68 C521.408831,270.52 519.808831,269.52 517.968831,269.52 Z M537.385596,285 L530.985596,285 L530.985596,256.2 L537.385596,256.2 L537.385596,285 Z M94.96,310.32 C100.28,310.32 104.76,314.64 104.76,320.96 C104.76,327.32 100.28,331.6 94.96,331.6 C92.36,331.6 90.28,330.8 88.72,329.4 L88.72,337.8 L82.32,337.8 L82.32,310.92 L88.72,310.92 L88.72,312.52 C90.28,311.12 92.36,310.32 94.96,310.32 Z M93.64,326.16 C96.44,326.16 98.48,324.08 98.48,320.96 C98.48,317.88 96.44,315.76 93.64,315.76 C91.04,315.76 88.72,317.88 88.72,320.96 C88.72,324.08 91.04,326.16 93.64,326.16 Z M117.216765,310.4 C123.176765,310.4 128.216765,314.64 128.216765,320.96 C128.216765,327.32 123.176765,331.56 117.216765,331.56 C111.136765,331.56 106.096765,327.32 106.096765,320.96 C106.096765,314.64 111.136765,310.4 117.216765,310.4 Z M117.216765,326.16 C119.696765,326.16 122.056765,324.12 122.056765,320.96 C122.056765,317.84 119.696765,315.76 117.216765,315.76 C114.616765,315.76 112.256765,317.84 112.256765,320.96 C112.256765,324.12 114.616765,326.16 117.216765,326.16 Z M159.63353,310.92 L153.19353,331.04 L147.63353,331.04 L144.03353,320.16 L140.39353,331.04 L134.83353,331.04 L128.39353,310.92 L134.67353,310.92 L137.95353,321.72 L141.75353,310.92 L146.27353,310.92 L150.07353,321.76 L153.35353,310.92 L159.63353,310.92 Z M180.810295,320.96 L180.810295,322.6 L166.090295,322.6 C166.610295,325 168.250295,326.48 170.410295,326.48 C171.890295,326.48 173.610295,326.12 174.690295,324.16 L180.370295,325.32 C178.650295,329.56 175.010295,331.6 170.410295,331.6 C164.610295,331.6 159.810295,327.32 159.810295,320.96 C159.810295,314.64 164.610295,310.32 170.450295,310.32 C176.130295,310.32 180.690295,314.4 180.810295,320.96 Z M170.450295,315.52 C168.650295,315.52 166.810295,316.64 166.210295,318.68 L174.490295,318.68 C173.890295,316.52 172.290295,315.52 170.450295,315.52 Z M196.78706,310.64 C197.34706,310.64 197.74706,310.68 198.22706,310.8 L197.94706,317.2 L196.78706,317.2 C192.30706,317.2 189.86706,319.52 189.86706,324.72 L189.86706,331 L183.46706,331 L183.46706,310.92 L189.86706,310.92 L189.86706,314.76 C191.30706,312.36 193.50706,310.64 196.78706,310.64 Z M219.843825,320.96 L219.843825,322.6 L205.123825,322.6 C205.643825,325 207.283825,326.48 209.443825,326.48 C210.923825,326.48 212.643825,326.12 213.723825,324.16 L219.403825,325.32 C217.683825,329.56 214.043825,331.6 209.443825,331.6 C203.643825,331.6 198.843825,327.32 198.843825,320.96 C198.843825,314.64 203.643825,310.32 209.483825,310.32 C215.163825,310.32 219.723825,314.4 219.843825,320.96 Z M209.483825,315.52 C207.683825,315.52 205.843825,316.64 205.243825,318.68 L213.523825,318.68 C212.923825,316.52 211.323825,315.52 209.483825,315.52 Z M243.62059,302.2 L243.62059,331 L237.22059,331 L237.22059,329.4 C235.66059,330.8 233.58059,331.6 230.98059,331.6 C225.66059,331.6 221.18059,327.32 221.18059,320.96 C221.18059,314.64 225.66059,310.32 230.98059,310.32 C233.58059,310.32 235.66059,311.12 237.22059,312.52 L237.22059,302.2 L243.62059,302.2 Z M232.30059,326.16 C234.90059,326.16 237.22059,324.08 237.22059,320.96 C237.22059,317.88 234.90059,315.76 232.30059,315.76 C229.50059,315.76 227.46059,317.88 227.46059,320.96 C227.46059,324.08 229.50059,326.16 232.30059,326.16 Z M268.85412,310.32 C274.17412,310.32 278.65412,314.64 278.65412,320.96 C278.65412,327.32 274.17412,331.6 268.85412,331.6 C266.25412,331.6 264.17412,330.8 262.61412,329.4 L262.61412,331 L256.21412,331 L256.21412,302.2 L262.61412,302.2 L262.61412,312.52 C264.17412,311.12 266.25412,310.32 268.85412,310.32 Z M267.53412,326.16 C270.33412,326.16 272.37412,324.08 272.37412,320.96 C272.37412,317.88 270.33412,315.76 267.53412,315.76 C264.93412,315.76 262.61412,317.88 262.61412,320.96 C262.61412,324.08 264.93412,326.16 267.53412,326.16 Z M302.150885,310.88 L290.550885,337.8 L283.630885,337.8 L286.870885,330.32 L278.550885,310.88 L285.430885,310.88 L290.190885,322.6 L295.270885,310.88 L302.150885,310.88 Z M319.304416,310 L319.304416,315.64 L331.864416,315.64 L331.864416,321.4 L319.304416,321.4 L319.304416,331 L312.704416,331 L312.704416,304.2 L333.424416,304.2 L333.424416,310 L319.304416,310 Z M356.481181,310.92 L356.481181,331 L350.081181,331 L350.081181,329.4 C348.521181,330.8 346.441181,331.6 343.841181,331.6 C338.521181,331.6 334.041181,327.32 334.041181,320.96 C334.041181,314.64 338.521181,310.32 343.841181,310.32 C346.441181,310.32 348.521181,311.12 350.081181,312.52 L350.081181,310.92 L356.481181,310.92 Z M345.161181,326.16 C347.761181,326.16 350.081181,324.08 350.081181,320.96 C350.081181,317.88 347.761181,315.76 345.161181,315.76 C342.361181,315.76 340.321181,317.88 340.321181,320.96 C340.321181,324.08 342.361181,326.16 345.161181,326.16 Z M373.017946,310.32 C377.697946,310.32 380.817946,313.64 380.817946,318.68 L380.817946,331 L374.457946,331 L374.457946,320.04 C374.457946,317.68 373.057946,316.08 371.017946,316.08 C368.497946,316.08 366.857946,317.8 366.857946,321.68 L366.857946,331 L360.457946,331 L360.457946,310.92 L366.857946,310.92 L366.857946,312.84 C368.377946,311.24 370.497946,310.32 373.017946,310.32 Z M397.914711,325.08 L399.394711,330.12 C397.834711,330.96 396.194711,331.6 393.914711,331.6 C388.914711,331.6 385.914711,328.88 385.914711,323.6 L385.914711,316 L382.274711,316 L382.274711,310.92 L385.914711,310.92 L385.914711,305 L392.314711,305 L392.314711,310.92 L398.234711,310.92 L398.234711,316 L392.314711,316 L392.314711,322.96 C392.314711,325.04 393.314711,325.88 394.994711,325.88 C395.874711,325.88 397.074711,325.56 397.914711,325.08 Z M410.571476,310.4 C416.531476,310.4 421.571476,314.64 421.571476,320.96 C421.571476,327.32 416.531476,331.56 410.571476,331.56 C404.491476,331.56 399.451476,327.32 399.451476,320.96 C399.451476,314.64 404.491476,310.4 410.571476,310.4 Z M410.571476,326.16 C413.051476,326.16 415.411476,324.12 415.411476,320.96 C415.411476,317.84 413.051476,315.76 410.571476,315.76 C407.971476,315.76 405.611476,317.84 405.611476,320.96 C405.611476,324.12 407.971476,326.16 410.571476,326.16 Z M450.228241,310.32 C454.508241,310.32 457.908241,313.56 457.908241,318.44 L457.908241,331 L451.548241,331 L451.548241,319.8 C451.548241,317.52 450.068241,316.08 448.188241,316.08 C445.828241,316.08 444.268241,317.8 444.268241,321.16 L444.268241,331 L437.868241,331 L437.868241,319.8 C437.868241,317.52 436.388241,316.08 434.468241,316.08 C432.148241,316.08 430.628241,317.8 430.628241,321.16 L430.628241,331 L424.228241,331 L424.228241,310.92 L430.628241,310.92 L430.628241,312.76 C431.988241,311.24 433.948241,310.32 436.548241,310.32 C439.348241,310.32 441.748241,311.52 443.108241,313.72 C444.708241,311.64 447.108241,310.32 450.228241,310.32 Z M483.581771,303.6 C491.581771,303.6 497.861771,309.8 497.861771,317.64 C497.861771,325.44 491.581771,331.6 483.581771,331.6 C475.581771,331.6 469.301771,325.44 469.301771,317.64 C469.301771,309.8 475.581771,303.6 483.581771,303.6 Z M483.581771,325.56 C487.941771,325.56 491.261771,322.2 491.261771,317.64 C491.261771,313.04 487.941771,309.64 483.581771,309.64 C479.221771,309.64 475.901771,313.04 475.901771,317.64 C475.901771,322.2 479.221771,325.56 483.581771,325.56 Z M513.558536,310.32 C518.878536,310.32 523.358536,314.64 523.358536,320.96 C523.358536,327.32 518.878536,331.6 513.558536,331.6 C510.958536,331.6 508.878536,330.8 507.318536,329.4 L507.318536,337.8 L500.918536,337.8 L500.918536,310.92 L507.318536,310.92 L507.318536,312.52 C508.878536,311.12 510.958536,310.32 513.558536,310.32 Z M512.238536,326.16 C515.038536,326.16 517.078536,324.08 517.078536,320.96 C517.078536,317.88 515.038536,315.76 512.238536,315.76 C509.638536,315.76 507.318536,317.88 507.318536,320.96 C507.318536,324.08 509.638536,326.16 512.238536,326.16 Z M545.695301,320.96 L545.695301,322.6 L530.975301,322.6 C531.495301,325 533.135301,326.48 535.295301,326.48 C536.775301,326.48 538.495301,326.12 539.575301,324.16 L545.255301,325.32 C543.535301,329.56 539.895301,331.6 535.295301,331.6 C529.495301,331.6 524.695301,327.32 524.695301,320.96 C524.695301,314.64 529.495301,310.32 535.335301,310.32 C541.015301,310.32 545.575301,314.4 545.695301,320.96 Z M535.335301,315.52 C533.535301,315.52 531.695301,316.64 531.095301,318.68 L539.375301,318.68 C538.775301,316.52 537.175301,315.52 535.335301,315.52 Z M561.672066,310.64 C562.232066,310.64 562.632066,310.68 563.112066,310.8 L562.832066,317.2 L561.672066,317.2 C557.192066,317.2 554.752066,319.52 554.752066,324.72 L554.752066,331 L548.352066,331 L548.352066,310.92 L554.752066,310.92 L554.752066,314.76 C556.192066,312.36 558.392066,310.64 561.672066,310.64 Z M586.168831,310.92 L586.168831,331 L579.768831,331 L579.768831,329.4 C578.208831,330.8 576.128831,331.6 573.528831,331.6 C568.208831,331.6 563.728831,327.32 563.728831,320.96 C563.728831,314.64 568.208831,310.32 573.528831,310.32 C576.128831,310.32 578.208831,311.12 579.768831,312.52 L579.768831,310.92 L586.168831,310.92 Z M574.848831,326.16 C577.448831,326.16 579.768831,324.08 579.768831,320.96 C579.768831,317.88 577.448831,315.76 574.848831,315.76 C572.048831,315.76 570.008831,317.88 570.008831,320.96 C570.008831,324.08 572.048831,326.16 574.848831,326.16 Z" id="Community-driven-DAO"></path>
        </g>
    </g>
</svg>