<svg xmlns="http://www.w3.org/2000/svg" xmlns:xlink="http://www.w3.org/1999/xlink" width="1200" zoomAndPan="magnify" viewBox="0 0 900 412.499988" height="550" preserveAspectRatio="xMidYMid meet" version="1.0"><defs><g/><clipPath id="f404adaedb"><path d="M 168.074219 113.257812 L 732 113.257812 L 732 293 L 168.074219 293 Z M 168.074219 113.257812 " clip-rule="nonzero"/></clipPath><clipPath id="70ffa9a452"><path d="M 196.539062 113.257812 L 703.460938 113.257812 C 711.007812 113.257812 718.25 116.257812 723.589844 121.597656 C 728.925781 126.933594 731.925781 134.175781 731.925781 141.726562 L 731.925781 264.550781 C 731.925781 272.097656 728.925781 279.339844 723.589844 284.675781 C 718.25 290.015625 711.007812 293.015625 703.460938 293.015625 L 196.539062 293.015625 C 188.992188 293.015625 181.75 290.015625 176.410156 284.675781 C 171.074219 279.339844 168.074219 272.097656 168.074219 264.550781 L 168.074219 141.726562 C 168.074219 134.175781 171.074219 126.933594 176.410156 121.597656 C 181.75 116.257812 188.992188 113.257812 196.539062 113.257812 " clip-rule="nonzero"/></clipPath><clipPath id="2bed3a6625"><path d="M 603.296875 172.453125 L 641.5 172.453125 L 641.5 233.878906 L 603.296875 233.878906 Z M 603.296875 172.453125 " clip-rule="nonzero"/></clipPath></defs><g clip-path="url(#f404adaedb)"><g clip-path="url(#70ffa9a452)"><path fill="#ffffff" d="M 168.074219 113.257812 L 731.648438 113.257812 L 731.648438 292.339844 L 168.074219 292.339844 Z M 168.074219 113.257812 " fill-opacity="1" fill-rule="nonzero"/></g></g><g fill="#000000" fill-opacity="1"><g transform="translate(286.325495, 223.376155)"><g><path d="M 27.6875 -53.828125 C 34.550781 -53.828125 39.894531 -52.125 43.71875 -48.71875 C 47.539062 -45.3125 49.453125 -40.609375 49.453125 -34.609375 C 49.453125 -28.609375 47.539062 -23.925781 43.71875 -20.5625 C 39.894531 -17.207031 34.550781 -15.53125 27.6875 -15.53125 L 19.296875 -15.53125 L 19.296875 0 L 5 0 L 5 -53.828125 Z M 27.140625 -27.765625 C 32.421875 -27.765625 35.0625 -30.046875 35.0625 -34.609375 C 35.0625 -39.222656 32.421875 -41.53125 27.140625 -41.53125 L 19.296875 -41.53125 L 19.296875 -27.765625 Z M 27.140625 -27.765625 "/></g></g></g><g fill="#000000" fill-opacity="1"><g transform="translate(337.924759, 223.376155)"><g><path d="M 28 -53.828125 C 34.863281 -53.828125 40.207031 -52.148438 44.03125 -48.796875 C 47.851562 -45.441406 49.765625 -40.816406 49.765625 -34.921875 C 49.765625 -26.660156 46.070312 -21.222656 38.6875 -18.609375 L 51.0625 0 L 35.0625 0 L 24.296875 -16.921875 L 19.296875 -16.921875 L 19.296875 0 L 5 0 L 5 -53.828125 Z M 19.296875 -28.375 L 27.375 -28.375 C 32.757812 -28.375 35.453125 -30.554688 35.453125 -34.921875 C 35.453125 -39.328125 32.757812 -41.53125 27.375 -41.53125 L 19.296875 -41.53125 Z M 19.296875 -28.375 "/></g></g></g><g fill="#000000" fill-opacity="1"><g transform="translate(390.985104, 223.376155)"><g><path d="M 2.6875 -26.921875 C 2.6875 -34.816406 5.363281 -41.441406 10.71875 -46.796875 C 16.082031 -52.148438 22.835938 -54.828125 30.984375 -54.828125 C 39.140625 -54.828125 45.894531 -52.148438 51.25 -46.796875 C 56.613281 -41.441406 59.296875 -34.816406 59.296875 -26.921875 C 59.296875 -19.023438 56.628906 -12.410156 51.296875 -7.078125 C 45.910156 -1.691406 39.140625 1 30.984375 1 C 22.835938 1 16.082031 -1.675781 10.71875 -7.03125 C 5.363281 -12.394531 2.6875 -19.023438 2.6875 -26.921875 Z M 17.234375 -26.921875 C 17.234375 -22.660156 18.515625 -19.171875 21.078125 -16.453125 C 23.585938 -13.691406 26.890625 -12.3125 30.984375 -12.3125 C 35.085938 -12.3125 38.394531 -13.679688 40.90625 -16.421875 C 43.425781 -19.160156 44.6875 -22.65625 44.6875 -26.90625 C 44.6875 -31.164062 43.425781 -34.664062 40.90625 -37.40625 C 38.394531 -40.15625 35.085938 -41.53125 30.984375 -41.53125 C 26.890625 -41.53125 23.570312 -40.15625 21.03125 -37.40625 C 18.5 -34.664062 17.234375 -31.171875 17.234375 -26.921875 Z M 17.234375 -26.921875 "/></g></g></g><g fill="#000000" fill-opacity="1"><g transform="translate(452.88884, 223.376155)"><g><path d="M 2.6875 -26.921875 C 2.6875 -34.816406 5.363281 -41.441406 10.71875 -46.796875 C 16.082031 -52.148438 22.835938 -54.828125 30.984375 -54.828125 C 39.140625 -54.828125 45.894531 -52.148438 51.25 -46.796875 C 56.613281 -41.441406 59.296875 -34.816406 59.296875 -26.921875 C 59.296875 -19.023438 56.628906 -12.410156 51.296875 -7.078125 C 45.910156 -1.691406 39.140625 1 30.984375 1 C 22.835938 1 16.082031 -1.675781 10.71875 -7.03125 C 5.363281 -12.394531 2.6875 -19.023438 2.6875 -26.921875 Z M 17.234375 -26.921875 C 17.234375 -22.660156 18.515625 -19.171875 21.078125 -16.453125 C 23.585938 -13.691406 26.890625 -12.3125 30.984375 -12.3125 C 35.085938 -12.3125 38.394531 -13.679688 40.90625 -16.421875 C 43.425781 -19.160156 44.6875 -22.65625 44.6875 -26.90625 C 44.6875 -31.164062 43.425781 -34.664062 40.90625 -37.40625 C 38.394531 -40.15625 35.085938 -41.53125 30.984375 -41.53125 C 26.890625 -41.53125 23.570312 -40.15625 21.03125 -37.40625 C 18.5 -34.664062 17.234375 -31.171875 17.234375 -26.921875 Z M 17.234375 -26.921875 "/></g></g></g><g fill="#000000" fill-opacity="1"><g transform="translate(514.792576, 223.376155)"><g><path d="M 5 -53.828125 L 43.6875 -53.828125 L 43.6875 -40.984375 L 19.296875 -40.984375 L 19.296875 -30.84375 L 40.296875 -30.84375 L 40.296875 -18.296875 L 19.296875 -18.296875 L 19.296875 0 L 5 0 Z M 5 -53.828125 "/></g></g></g><g fill="#000000" fill-opacity="1"><g transform="translate(560.844292, 223.376155)"><g/></g></g><g fill="#000000" fill-opacity="1"><g transform="translate(578.454171, 223.376155)"><g/></g></g><g fill="#000000" fill-opacity="1"><g transform="translate(596.06405, 223.376155)"><g/></g></g><g clip-path="url(#2bed3a6625)"><path fill="#000000" d="M 603.433594 179.695312 L 626.839844 203.164062 L 603.433594 226.632812 L 610.65625 233.878906 L 641.285156 203.164062 L 610.65625 172.453125 Z M 603.433594 179.695312 " fill-opacity="1" fill-rule="nonzero"/></g></svg>