<?xml version="1.0" encoding="UTF-8"?>
<svg width="162px" height="50px" viewBox="0 0 162 50" version="1.1" xmlns="http://www.w3.org/2000/svg" xmlns:xlink="http://www.w3.org/1999/xlink">
    <!-- Generator: Sketch 52 (66869) - http://www.bohemiancoding.com/sketch -->
    <title>Combined Shape</title>
    <desc>Created with Sketch.</desc>
    <g id="Page-1" stroke="none" stroke-width="1" fill="none" fill-rule="evenodd">
        <g id="进入app按钮" transform="translate(-360.000000, -435.000000)" fill="#FFFFFF">
            <path d="M368,435 L514,435 C518.418278,435 522,438.581722 522,443 L522,477 C522,481.418278 518.418278,485 514,485 L368,485 C363.581722,485 360,481.418278 360,477 L360,443 C360,438.581722 363.581722,435 368,435 Z M399.28,462.728 L393.568,462.728 L393.568,460.712 L398.768,460.712 L398.768,458.568 L393.568,458.568 L393.568,456.552 L399.232,456.552 L399.232,454.28 L390.928,454.28 L390.928,465 L399.28,465 L399.28,462.728 Z M405.739765,456.728 C404.731765,456.728 403.883765,457.096 403.275765,457.736 L403.275765,456.968 L400.715765,456.968 L400.715765,465 L403.275765,465 L403.275765,461.272 C403.275765,459.72 403.931765,459.032 404.939765,459.032 C405.755765,459.032 406.315765,459.672 406.315765,460.616 L406.315765,465 L408.859765,465 L408.859765,460.072 C408.859765,458.056 407.611765,456.728 405.739765,456.728 Z M415.75153,462.632 C415.41553,462.824 414.93553,462.952 414.58353,462.952 C413.91153,462.952 413.51153,462.616 413.51153,461.784 L413.51153,459 L415.87953,459 L415.87953,456.968 L413.51153,456.968 L413.51153,454.6 L410.95153,454.6 L410.95153,456.968 L409.49553,456.968 L409.49553,459 L410.95153,459 L410.95153,462.04 C410.95153,464.152 412.15153,465.24 414.15153,465.24 C415.06353,465.24 415.71953,464.984 416.34353,464.648 L415.75153,462.632 Z M424.819295,460.984 C424.771295,458.36 422.947295,456.728 420.675295,456.728 C418.339295,456.728 416.419295,458.456 416.419295,460.984 C416.419295,463.528 418.339295,465.24 420.659295,465.24 C422.499295,465.24 423.955295,464.424 424.643295,462.728 L422.371295,462.264 C421.939295,463.048 421.251295,463.192 420.659295,463.192 C419.795295,463.192 419.139295,462.6 418.931295,461.64 L424.819295,461.64 L424.819295,460.984 Z M420.675295,458.808 C421.411295,458.808 422.051295,459.208 422.291295,460.072 L418.979295,460.072 C419.219295,459.256 419.955295,458.808 420.675295,458.808 Z M431.26306,456.856 C429.95106,456.856 429.07106,457.544 428.49506,458.504 L428.49506,456.968 L425.93506,456.968 L425.93506,465 L428.49506,465 L428.49506,462.488 C428.49506,460.408 429.47106,459.48 431.26306,459.48 L431.72706,459.48 L431.83906,456.92 C431.64706,456.872 431.48706,456.856 431.26306,456.856 Z M444.662589,456.968 L442.102589,456.968 L442.102589,457.608 C441.478589,457.048 440.646589,456.728 439.606589,456.728 C437.478589,456.728 435.686589,458.456 435.686589,460.984 C435.686589,463.528 437.478589,465.24 439.606589,465.24 C440.646589,465.24 441.478589,464.92 442.102589,464.36 L442.102589,465 L444.662589,465 L444.662589,456.968 Z M440.134589,463.064 C439.014589,463.064 438.198589,462.232 438.198589,460.984 C438.198589,459.752 439.014589,458.904 440.134589,458.904 C441.174589,458.904 442.102589,459.752 442.102589,460.984 C442.102589,462.232 441.174589,463.064 440.134589,463.064 Z M451.362354,456.728 C450.322354,456.728 449.490354,457.048 448.866354,457.608 L448.866354,456.968 L446.306354,456.968 L446.306354,467.72 L448.866354,467.72 L448.866354,464.36 C449.490354,464.92 450.322354,465.24 451.362354,465.24 C453.490354,465.24 455.282354,463.528 455.282354,460.984 C455.282354,458.456 453.490354,456.728 451.362354,456.728 Z M450.834354,463.064 C449.794354,463.064 448.866354,462.232 448.866354,460.984 C448.866354,459.752 449.794354,458.904 450.834354,458.904 C451.954354,458.904 452.770354,459.752 452.770354,460.984 C452.770354,462.232 451.954354,463.064 450.834354,463.064 Z M461.454119,456.728 C460.414119,456.728 459.582119,457.048 458.958119,457.608 L458.958119,456.968 L456.398119,456.968 L456.398119,467.72 L458.958119,467.72 L458.958119,464.36 C459.582119,464.92 460.414119,465.24 461.454119,465.24 C463.582119,465.24 465.374119,463.528 465.374119,460.984 C465.374119,458.456 463.582119,456.728 461.454119,456.728 Z M460.926119,463.064 C459.886119,463.064 458.958119,462.232 458.958119,460.984 C458.958119,459.752 459.886119,458.904 460.926119,458.904 C462.046119,458.904 462.862119,459.752 462.862119,460.984 C462.862119,462.232 462.046119,463.064 460.926119,463.064 Z M485.828427,461 L480.171573,466.656854 L483,469.485281 L491.485281,461 L483,452.514719 L480.171573,455.343146 L485.828427,461 Z" id="Combined-Shape"></path>
        </g>
    </g>
</svg>