<?xml version="1.0" encoding="UTF-8"?>
<svg width="1280px" height="688px" viewBox="0 0 1280 688" version="1.1" xmlns="http://www.w3.org/2000/svg" xmlns:xlink="http://www.w3.org/1999/xlink">
    <!-- Generator: Sketch 52 (66869) - http://www.bohemiancoding.com/sketch -->
    <title>Group 3@3x</title>
    <desc>Created with Sketch.</desc>
    <g id="Page-1" stroke="none" stroke-width="1" fill="none" fill-rule="evenodd" opacity="0.1">
        <g id="banner2" transform="translate(0.000000, -12.000000)" fill="#FFFFFF" fill-rule="nonzero">
            <g id="Group-3" transform="translate(-168.000000, 14.000000)">
                <g id="Group-4" transform="translate(660.000000, 0.000000)">
                    <path d="M500,1002 C222.753056,1002 -2,777.246944 -2,500 C-2,222.753056 222.753056,-2 500,-2 C777.246944,-2 1002,222.753056 1002,500 C1002,777.246944 777.246944,1002 500,1002 Z M500,998 C775.037805,998 998,775.037805 998,500 C998,224.962195 775.037805,2 500,2 C224.962195,2 2,224.962195 2,500 C2,775.037805 224.962195,998 500,998 Z M500,952 C250.367293,952 48,749.632707 48,500 C48,250.367293 250.367293,48 500,48 C749.632707,48 952,250.367293 952,500 C952,749.632707 749.632707,952 500,952 Z M500,948 C747.423568,948 948,747.423568 948,500 C948,252.576432 747.423568,52 500,52 C252.576432,52 52,252.576432 52,500 C52,747.423568 252.576432,948 500,948 Z M500,902 C277.981531,902 98,722.018469 98,500 C98,277.981531 277.981531,98 500,98 C722.018469,98 902,277.981531 902,500 C902,722.018469 722.018469,902 500,902 Z M500,898 C719.80933,898 898,719.80933 898,500 C898,280.19067 719.80933,102 500,102 C280.19067,102 102,280.19067 102,500 C102,719.80933 280.19067,898 500,898 Z M500,852 C305.595768,852 148,694.404232 148,500 C148,305.595768 305.595768,148 500,148 C694.404232,148 852,305.595768 852,500 C852,694.404232 694.404232,852 500,852 Z M500,848 C692.195093,848 848,692.195093 848,500 C848,307.804907 692.195093,152 500,152 C307.804907,152 152,307.804907 152,500 C152,692.195093 307.804907,848 500,848 Z M500,802 C333.210006,802 198,666.789994 198,500 C198,333.210006 333.210006,198 500,198 C666.789994,198 802,333.210006 802,500 C802,666.789994 666.789994,802 500,802 Z M500,798 C664.580855,798 798,664.580855 798,500 C798,335.419145 664.580855,202 500,202 C335.419145,202 202,335.419145 202,500 C202,664.580855 335.419145,798 500,798 Z M500,752 C360.824243,752 248,639.175757 248,500 C248,360.824243 360.824243,248 500,248 C639.175757,248 752,360.824243 752,500 C752,639.175757 639.175757,752 500,752 Z M500,748 C636.966618,748 748,636.966618 748,500 C748,363.033382 636.966618,252 500,252 C363.033382,252 252,363.033382 252,500 C252,636.966618 363.033382,748 500,748 Z" id="Combined-Shape"></path>
                </g>
                <g id="Group-4" transform="translate(0.000000, 360.000000)">
                    <path d="M500,1002 C222.753056,1002 -2,777.246944 -2,500 C-2,222.753056 222.753056,-2 500,-2 C777.246944,-2 1002,222.753056 1002,500 C1002,777.246944 777.246944,1002 500,1002 Z M500,998 C775.037805,998 998,775.037805 998,500 C998,224.962195 775.037805,2 500,2 C224.962195,2 2,224.962195 2,500 C2,775.037805 224.962195,998 500,998 Z M500,952 C250.367293,952 48,749.632707 48,500 C48,250.367293 250.367293,48 500,48 C749.632707,48 952,250.367293 952,500 C952,749.632707 749.632707,952 500,952 Z M500,948 C747.423568,948 948,747.423568 948,500 C948,252.576432 747.423568,52 500,52 C252.576432,52 52,252.576432 52,500 C52,747.423568 252.576432,948 500,948 Z M500,902 C277.981531,902 98,722.018469 98,500 C98,277.981531 277.981531,98 500,98 C722.018469,98 902,277.981531 902,500 C902,722.018469 722.018469,902 500,902 Z M500,898 C719.80933,898 898,719.80933 898,500 C898,280.19067 719.80933,102 500,102 C280.19067,102 102,280.19067 102,500 C102,719.80933 280.19067,898 500,898 Z M500,852 C305.595768,852 148,694.404232 148,500 C148,305.595768 305.595768,148 500,148 C694.404232,148 852,305.595768 852,500 C852,694.404232 694.404232,852 500,852 Z M500,848 C692.195093,848 848,692.195093 848,500 C848,307.804907 692.195093,152 500,152 C307.804907,152 152,307.804907 152,500 C152,692.195093 307.804907,848 500,848 Z M500,802 C333.210006,802 198,666.789994 198,500 C198,333.210006 333.210006,198 500,198 C666.789994,198 802,333.210006 802,500 C802,666.789994 666.789994,802 500,802 Z M500,798 C664.580855,798 798,664.580855 798,500 C798,335.419145 664.580855,202 500,202 C335.419145,202 202,335.419145 202,500 C202,664.580855 335.419145,798 500,798 Z M500,752 C360.824243,752 248,639.175757 248,500 C248,360.824243 360.824243,248 500,248 C639.175757,248 752,360.824243 752,500 C752,639.175757 639.175757,752 500,752 Z M500,748 C636.966618,748 748,636.966618 748,500 C748,363.033382 636.966618,252 500,252 C363.033382,252 252,363.033382 252,500 C252,636.966618 363.033382,748 500,748 Z" id="Combined-Shape"></path>
                </g>
            </g>
        </g>
    </g>
</svg>