<svg xmlns="http://www.w3.org/2000/svg" xmlns:xlink="http://www.w3.org/1999/xlink" width="1200" zoomAndPan="magnify" viewBox="0 0 900 412.499988" height="550" preserveAspectRatio="xMidYMid meet" version="1.0"><defs><g/></defs><g fill="#ffffff" fill-opacity="1"><g transform="translate(24.60551, 121.576367)"><g><path d="M 10.5 -45.390625 C 15.71875 -50.265625 22.539062 -52.703125 30.96875 -52.703125 C 36.488281 -52.703125 41.269531 -51.691406 45.3125 -49.671875 L 45.3125 -36.8125 C 41.21875 -38.925781 36.804688 -39.984375 32.078125 -39.984375 C 27.398438 -39.984375 23.664062 -38.726562 20.875 -36.21875 C 18.09375 -33.707031 16.703125 -30.257812 16.703125 -25.875 C 16.703125 -21.488281 18.09375 -18.035156 20.875 -15.515625 C 23.664062 -13.003906 27.398438 -11.75 32.078125 -11.75 C 36.804688 -11.75 41.21875 -12.8125 45.3125 -14.9375 L 45.3125 -2.0625 C 41.269531 -0.0390625 36.488281 0.96875 30.96875 0.96875 C 22.539062 0.96875 15.703125 -1.46875 10.453125 -6.34375 C 5.210938 -11.226562 2.59375 -17.734375 2.59375 -25.859375 C 2.59375 -33.992188 5.226562 -40.503906 10.5 -45.390625 Z M 10.5 -45.390625 "/></g></g></g><g fill="#ffffff" fill-opacity="1"><g transform="translate(72.868911, 121.576367)"><g><path d="M 8.28125 -32.453125 C 12.175781 -36.046875 17.03125 -37.84375 22.84375 -37.84375 C 28.601562 -37.84375 33.453125 -36.046875 37.390625 -32.453125 C 41.335938 -28.859375 43.3125 -24.175781 43.3125 -18.40625 C 43.3125 -12.6875 41.335938 -8.023438 37.390625 -4.421875 C 33.453125 -0.828125 28.601562 0.96875 22.84375 0.96875 C 17.03125 0.96875 12.160156 -0.828125 8.234375 -4.421875 C 4.316406 -8.023438 2.359375 -12.6875 2.359375 -18.40625 C 2.359375 -24.175781 4.332031 -28.859375 8.28125 -32.453125 Z M 15.453125 -18.40625 C 15.453125 -16.1875 16.140625 -14.390625 17.515625 -13.015625 C 18.847656 -11.578125 20.625 -10.859375 22.84375 -10.859375 C 25.0625 -10.859375 26.847656 -11.5625 28.203125 -12.96875 C 29.554688 -14.375 30.234375 -16.1875 30.234375 -18.40625 C 30.234375 -20.625 29.554688 -22.4375 28.203125 -23.84375 C 26.847656 -25.25 25.0625 -25.953125 22.84375 -25.953125 C 20.625 -25.953125 18.835938 -25.25 17.484375 -23.84375 C 16.128906 -22.4375 15.453125 -20.625 15.453125 -18.40625 Z M 15.453125 -18.40625 "/></g></g></g><g fill="#ffffff" fill-opacity="1"><g transform="translate(118.545458, 121.576367)"><g><path d="M 16.859375 -36.890625 L 16.859375 -32.671875 C 19.617188 -36.117188 23.164062 -37.84375 27.5 -37.84375 C 29.914062 -37.84375 32.082031 -37.25 34 -36.0625 C 35.925781 -34.882812 37.457031 -33.238281 38.59375 -31.125 C 41.445312 -35.601562 45.507812 -37.84375 50.78125 -37.84375 C 54.625 -37.84375 57.765625 -36.460938 60.203125 -33.703125 C 62.648438 -30.941406 63.875 -27.296875 63.875 -22.765625 L 63.875 0 L 50.859375 0 L 50.859375 -19.140625 C 50.859375 -23.628906 49.234375 -25.875 45.984375 -25.875 C 44.359375 -25.875 43.023438 -25.28125 41.984375 -24.09375 C 40.953125 -22.914062 40.4375 -21.242188 40.4375 -19.078125 L 40.4375 0 L 27.421875 0 L 27.421875 -19.140625 C 27.421875 -23.628906 25.820312 -25.875 22.625 -25.875 C 21 -25.875 19.664062 -25.28125 18.625 -24.09375 C 17.59375 -22.914062 17.078125 -21.242188 17.078125 -19.078125 L 17.078125 0 L 4.0625 0 L 4.0625 -36.890625 Z M 16.859375 -36.890625 "/></g></g></g><g fill="#ffffff" fill-opacity="1"><g transform="translate(186.025542, 121.576367)"><g><path d="M 16.859375 -36.890625 L 16.859375 -32.671875 C 19.617188 -36.117188 23.164062 -37.84375 27.5 -37.84375 C 29.914062 -37.84375 32.082031 -37.25 34 -36.0625 C 35.925781 -34.882812 37.457031 -33.238281 38.59375 -31.125 C 41.445312 -35.601562 45.507812 -37.84375 50.78125 -37.84375 C 54.625 -37.84375 57.765625 -36.460938 60.203125 -33.703125 C 62.648438 -30.941406 63.875 -27.296875 63.875 -22.765625 L 63.875 0 L 50.859375 0 L 50.859375 -19.140625 C 50.859375 -23.628906 49.234375 -25.875 45.984375 -25.875 C 44.359375 -25.875 43.023438 -25.28125 41.984375 -24.09375 C 40.953125 -22.914062 40.4375 -21.242188 40.4375 -19.078125 L 40.4375 0 L 27.421875 0 L 27.421875 -19.140625 C 27.421875 -23.628906 25.820312 -25.875 22.625 -25.875 C 21 -25.875 19.664062 -25.28125 18.625 -24.09375 C 17.59375 -22.914062 17.078125 -21.242188 17.078125 -19.078125 L 17.078125 0 L 4.0625 0 L 4.0625 -36.890625 Z M 16.859375 -36.890625 "/></g></g></g><g fill="#ffffff" fill-opacity="1"><g transform="translate(253.505625, 121.576367)"><g><path d="M 3.703125 -36.890625 L 16.703125 -36.890625 L 16.703125 -17.375 C 16.703125 -13.132812 18.425781 -11.015625 21.875 -11.015625 C 23.695312 -11.015625 25.160156 -11.601562 26.265625 -12.78125 C 27.378906 -13.96875 27.9375 -15.644531 27.9375 -17.8125 L 27.9375 -36.890625 L 40.953125 -36.890625 L 40.953125 0 L 28.09375 0 L 28.09375 -4.140625 C 25.226562 -0.734375 21.503906 0.96875 16.921875 0.96875 C 12.929688 0.96875 9.726562 -0.347656 7.3125 -2.984375 C 4.90625 -5.628906 3.703125 -9.21875 3.703125 -13.75 Z M 3.703125 -36.890625 "/></g></g></g><g fill="#ffffff" fill-opacity="1"><g transform="translate(298.516978, 121.576367)"><g><path d="M 16.859375 -36.890625 L 16.859375 -32.671875 C 19.617188 -36.117188 23.335938 -37.84375 28.015625 -37.84375 C 32.054688 -37.84375 35.332031 -36.460938 37.84375 -33.703125 C 40.363281 -30.941406 41.625 -27.296875 41.625 -22.765625 L 41.625 0 L 28.609375 0 L 28.609375 -19.140625 C 28.609375 -23.628906 26.785156 -25.875 23.140625 -25.875 C 21.316406 -25.875 19.847656 -25.28125 18.734375 -24.09375 C 17.628906 -22.914062 17.078125 -21.242188 17.078125 -19.078125 L 17.078125 0 L 4.0625 0 L 4.0625 -36.890625 Z M 16.859375 -36.890625 "/></g></g></g><g fill="#ffffff" fill-opacity="1"><g transform="translate(343.823964, 121.576367)"><g><path d="M 4.0625 0 L 4.0625 -36.890625 L 17.078125 -36.890625 L 17.078125 0 Z M 2.953125 -48.421875 C 2.953125 -50.492188 3.664062 -52.207031 5.09375 -53.5625 C 6.53125 -54.914062 8.351562 -55.59375 10.5625 -55.59375 C 12.78125 -55.59375 14.601562 -54.914062 16.03125 -53.5625 C 17.46875 -52.207031 18.1875 -50.492188 18.1875 -48.421875 C 18.1875 -46.347656 17.472656 -44.625 16.046875 -43.25 C 14.609375 -41.863281 12.78125 -41.171875 10.5625 -41.171875 C 8.351562 -41.171875 6.53125 -41.859375 5.09375 -43.234375 C 3.664062 -44.617188 2.953125 -46.347656 2.953125 -48.421875 Z M 2.953125 -48.421875 "/></g></g></g><g fill="#ffffff" fill-opacity="1"><g transform="translate(364.962304, 121.576367)"><g><path d="M 0.890625 -36.890625 L 7.609375 -36.890625 L 7.609375 -46.859375 L 20.46875 -46.859375 L 20.46875 -36.890625 L 31.640625 -36.890625 L 31.640625 -26.015625 L 20.46875 -26.015625 L 20.46875 -16.265625 C 20.46875 -14.242188 20.9375 -12.800781 21.875 -11.9375 C 22.8125 -11.070312 24.316406 -10.640625 26.390625 -10.640625 C 28.503906 -10.640625 30.472656 -11.0625 32.296875 -11.90625 L 32.296875 -0.671875 C 29.691406 0.421875 26.738281 0.96875 23.4375 0.96875 C 18.0625 0.96875 14.078125 -0.25 11.484375 -2.6875 C 8.898438 -5.132812 7.609375 -8.921875 7.609375 -14.046875 L 7.609375 -26.015625 L 0.890625 -26.015625 Z M 0.890625 -36.890625 "/></g></g></g><g fill="#ffffff" fill-opacity="1"><g transform="translate(399.182771, 121.576367)"><g><path d="M 0.296875 -36.890625 L 14.34375 -36.890625 L 21.4375 -14.125 L 28.609375 -36.890625 L 42.578125 -36.890625 L 22.171875 15.53125 L 7.765625 15.53125 L 14.34375 -0.375 Z M 0.296875 -36.890625 "/></g></g></g><g fill="#ffffff" fill-opacity="1"><g transform="translate(442.050719, 121.576367)"><g/></g></g><g fill="#ffffff" fill-opacity="1"><g transform="translate(458.976181, 121.576367)"><g><path d="M 2.359375 -18.40625 C 2.359375 -24.019531 4.070312 -28.660156 7.5 -32.328125 C 10.925781 -36.003906 15.078125 -37.84375 19.953125 -37.84375 C 24.296875 -37.84375 27.695312 -36.390625 30.15625 -33.484375 L 30.15625 -51.75 L 43.171875 -51.75 L 43.171875 0 L 30.3125 0 L 30.3125 -3.546875 C 27.84375 -0.535156 24.390625 0.96875 19.953125 0.96875 C 15.078125 0.96875 10.925781 -0.851562 7.5 -4.5 C 4.070312 -8.15625 2.359375 -12.789062 2.359375 -18.40625 Z M 15.53125 -18.40625 C 15.53125 -16.1875 16.21875 -14.390625 17.59375 -13.015625 C 18.925781 -11.578125 20.703125 -10.859375 22.921875 -10.859375 C 25.140625 -10.859375 26.925781 -11.5625 28.28125 -12.96875 C 29.632812 -14.375 30.3125 -16.1875 30.3125 -18.40625 C 30.3125 -20.625 29.632812 -22.4375 28.28125 -23.84375 C 26.925781 -25.25 25.140625 -25.953125 22.921875 -25.953125 C 20.703125 -25.953125 18.914062 -25.25 17.5625 -23.84375 C 16.207031 -22.4375 15.53125 -20.625 15.53125 -18.40625 Z M 15.53125 -18.40625 "/></g></g></g><g fill="#ffffff" fill-opacity="1"><g transform="translate(506.278753, 121.576367)"><g><path d="M 16.859375 -36.890625 L 16.859375 -32.078125 C 19.222656 -35.878906 22.742188 -37.78125 27.421875 -37.78125 C 28.554688 -37.78125 29.539062 -37.65625 30.375 -37.40625 L 30.375 -25.28125 C 29.050781 -25.53125 27.769531 -25.65625 26.53125 -25.65625 C 20.226562 -25.65625 17.078125 -22.003906 17.078125 -14.703125 L 17.078125 0 L 4.0625 0 L 4.0625 -36.890625 Z M 16.859375 -36.890625 "/></g></g></g><g fill="#ffffff" fill-opacity="1"><g transform="translate(537.986254, 121.576367)"><g><path d="M 4.0625 0 L 4.0625 -36.890625 L 17.078125 -36.890625 L 17.078125 0 Z M 2.953125 -48.421875 C 2.953125 -50.492188 3.664062 -52.207031 5.09375 -53.5625 C 6.53125 -54.914062 8.351562 -55.59375 10.5625 -55.59375 C 12.78125 -55.59375 14.601562 -54.914062 16.03125 -53.5625 C 17.46875 -52.207031 18.1875 -50.492188 18.1875 -48.421875 C 18.1875 -46.347656 17.472656 -44.625 16.046875 -43.25 C 14.609375 -41.863281 12.78125 -41.171875 10.5625 -41.171875 C 8.351562 -41.171875 6.53125 -41.859375 5.09375 -43.234375 C 3.664062 -44.617188 2.953125 -46.347656 2.953125 -48.421875 Z M 2.953125 -48.421875 "/></g></g></g><g fill="#ffffff" fill-opacity="1"><g transform="translate(559.124614, 121.576367)"><g><path d="M 0.296875 -36.890625 L 14.265625 -36.890625 L 21.296875 -13.75 L 28.3125 -36.890625 L 42.0625 -36.890625 L 28.3125 0 L 14.125 0 Z M 0.296875 -36.890625 "/></g></g></g><g fill="#ffffff" fill-opacity="1"><g transform="translate(601.549113, 121.576367)"><g><path d="M 8.0625 -32.296875 C 11.800781 -35.992188 16.628906 -37.84375 22.546875 -37.84375 C 28.265625 -37.84375 32.847656 -36.101562 36.296875 -32.625 C 39.742188 -29.15625 41.46875 -24.488281 41.46875 -18.625 C 41.46875 -17.34375 41.394531 -16.285156 41.25 -15.453125 L 15.296875 -15.453125 C 16.234375 -11.265625 19.460938 -9.171875 24.984375 -9.171875 C 29.222656 -9.171875 33.582031 -10.179688 38.0625 -12.203125 L 38.0625 -2 C 33.832031 -0.0195312 29.128906 0.96875 23.953125 0.96875 C 17.203125 0.96875 11.914062 -0.707031 8.09375 -4.0625 C 4.269531 -7.414062 2.359375 -12.023438 2.359375 -17.890625 C 2.359375 -23.804688 4.257812 -28.609375 8.0625 -32.296875 Z M 15.375 -22.765625 L 28.75 -22.765625 C 27.914062 -26.515625 25.773438 -28.390625 22.328125 -28.390625 C 18.628906 -28.390625 16.3125 -26.515625 15.375 -22.765625 Z M 15.375 -22.765625 "/></g></g></g><g fill="#ffffff" fill-opacity="1"><g transform="translate(645.00833, 121.576367)"><g><path d="M 16.859375 -36.890625 L 16.859375 -32.671875 C 19.617188 -36.117188 23.335938 -37.84375 28.015625 -37.84375 C 32.054688 -37.84375 35.332031 -36.460938 37.84375 -33.703125 C 40.363281 -30.941406 41.625 -27.296875 41.625 -22.765625 L 41.625 0 L 28.609375 0 L 28.609375 -19.140625 C 28.609375 -23.628906 26.785156 -25.875 23.140625 -25.875 C 21.316406 -25.875 19.847656 -25.28125 18.734375 -24.09375 C 17.628906 -22.914062 17.078125 -21.242188 17.078125 -19.078125 L 17.078125 0 L 4.0625 0 L 4.0625 -36.890625 Z M 16.859375 -36.890625 "/></g></g></g><g fill="#ffffff" fill-opacity="1"><g transform="translate(690.315297, 121.576367)"><g/></g></g><g fill="#ffffff" fill-opacity="1"><g transform="translate(707.240721, 121.576367)"><g><path d="M 4.8125 0 L 4.8125 -51.75 L 25.203125 -51.75 C 32.796875 -51.75 39.03125 -49.378906 43.90625 -44.640625 C 48.789062 -39.910156 51.234375 -33.648438 51.234375 -25.859375 C 51.234375 -18.078125 48.789062 -11.820312 43.90625 -7.09375 C 39.03125 -2.363281 32.796875 0 25.203125 0 Z M 18.546875 -39.328125 L 18.546875 -12.421875 L 24.84375 -12.421875 C 28.632812 -12.421875 31.648438 -13.578125 33.890625 -15.890625 C 36.128906 -18.210938 37.25 -21.539062 37.25 -25.875 C 37.25 -30.207031 36.128906 -33.53125 33.890625 -35.84375 C 31.648438 -38.164062 28.632812 -39.328125 24.84375 -39.328125 Z M 18.546875 -39.328125 "/></g></g></g><g fill="#ffffff" fill-opacity="1"><g transform="translate(761.047392, 121.576367)"><g><path d="M 19.65625 -51.75 L 35.1875 -51.75 L 54.546875 0 L 40.4375 0 L 37.25 -9.234375 L 17.515625 -9.234375 L 14.34375 0 L 0.21875 0 Z M 21.21875 -20.109375 L 33.5625 -20.109375 L 27.421875 -38.0625 Z M 21.21875 -20.109375 "/></g></g></g><g fill="#ffffff" fill-opacity="1"><g transform="translate(815.888781, 121.576367)"><g><path d="M 2.59375 -25.875 C 2.59375 -33.457031 5.164062 -39.820312 10.3125 -44.96875 C 15.457031 -50.125 21.945312 -52.703125 29.78125 -52.703125 C 37.625 -52.703125 44.117188 -50.125 49.265625 -44.96875 C 54.421875 -39.820312 57 -33.453125 57 -25.859375 C 57 -18.273438 54.4375 -11.921875 49.3125 -6.796875 C 44.132812 -1.617188 37.625 0.96875 29.78125 0.96875 C 21.945312 0.96875 15.457031 -1.601562 10.3125 -6.75 C 5.164062 -11.90625 2.59375 -18.28125 2.59375 -25.875 Z M 16.5625 -25.875 C 16.5625 -21.78125 17.789062 -18.425781 20.25 -15.8125 C 22.664062 -13.15625 25.84375 -11.828125 29.78125 -11.828125 C 33.726562 -11.828125 36.910156 -13.144531 39.328125 -15.78125 C 41.742188 -18.414062 42.953125 -21.78125 42.953125 -25.875 C 42.953125 -29.96875 41.742188 -33.332031 39.328125 -35.96875 C 36.910156 -38.601562 33.726562 -39.921875 29.78125 -39.921875 C 25.84375 -39.921875 22.65625 -38.601562 20.21875 -35.96875 C 17.78125 -33.332031 16.5625 -29.96875 16.5625 -25.875 Z M 16.5625 -25.875 "/></g></g></g><g fill="#ffffff" fill-opacity="1"><g transform="translate(2.692303, 224.901173)"><g/></g></g><g fill="#ffffff" fill-opacity="1"><g transform="translate(19.604652, 224.901173)"><g><path d="M 3.703125 -36.890625 L 16.703125 -36.890625 L 16.703125 -17.375 C 16.703125 -13.132812 18.425781 -11.015625 21.875 -11.015625 C 23.695312 -11.015625 25.160156 -11.601562 26.265625 -12.78125 C 27.378906 -13.96875 27.9375 -15.644531 27.9375 -17.8125 L 27.9375 -36.890625 L 40.953125 -36.890625 L 40.953125 0 L 28.09375 0 L 28.09375 -4.140625 C 25.226562 -0.734375 21.503906 0.96875 16.921875 0.96875 C 12.929688 0.96875 9.726562 -0.347656 7.3125 -2.984375 C 4.90625 -5.628906 3.703125 -9.21875 3.703125 -13.75 Z M 3.703125 -36.890625 "/></g></g></g><g fill="#ffffff" fill-opacity="1"><g transform="translate(64.616005, 224.901173)"><g><path d="M 0.890625 -36.890625 L 7.609375 -36.890625 L 7.609375 -46.859375 L 20.46875 -46.859375 L 20.46875 -36.890625 L 31.640625 -36.890625 L 31.640625 -26.015625 L 20.46875 -26.015625 L 20.46875 -16.265625 C 20.46875 -14.242188 20.9375 -12.800781 21.875 -11.9375 C 22.8125 -11.070312 24.316406 -10.640625 26.390625 -10.640625 C 28.503906 -10.640625 30.472656 -11.0625 32.296875 -11.90625 L 32.296875 -0.671875 C 29.691406 0.421875 26.738281 0.96875 23.4375 0.96875 C 18.0625 0.96875 14.078125 -0.25 11.484375 -2.6875 C 8.898438 -5.132812 7.609375 -8.921875 7.609375 -14.046875 L 7.609375 -26.015625 L 0.890625 -26.015625 Z M 0.890625 -36.890625 "/></g></g></g><g fill="#ffffff" fill-opacity="1"><g transform="translate(98.836452, 224.901173)"><g><path d="M 4.0625 0 L 4.0625 -36.890625 L 17.078125 -36.890625 L 17.078125 0 Z M 2.953125 -48.421875 C 2.953125 -50.492188 3.664062 -52.207031 5.09375 -53.5625 C 6.53125 -54.914062 8.351562 -55.59375 10.5625 -55.59375 C 12.78125 -55.59375 14.601562 -54.914062 16.03125 -53.5625 C 17.46875 -52.207031 18.1875 -50.492188 18.1875 -48.421875 C 18.1875 -46.347656 17.472656 -44.625 16.046875 -43.25 C 14.609375 -41.863281 12.78125 -41.171875 10.5625 -41.171875 C 8.351562 -41.171875 6.53125 -41.859375 5.09375 -43.234375 C 3.664062 -44.617188 2.953125 -46.347656 2.953125 -48.421875 Z M 2.953125 -48.421875 "/></g></g></g><g fill="#ffffff" fill-opacity="1"><g transform="translate(119.974792, 224.901173)"><g><path d="M 17.078125 0 L 4.0625 0 L 4.0625 -51.75 L 17.078125 -51.75 Z M 17.078125 0 "/></g></g></g><g fill="#ffffff" fill-opacity="1"><g transform="translate(141.113133, 224.901173)"><g><path d="M 4.0625 0 L 4.0625 -36.890625 L 17.078125 -36.890625 L 17.078125 0 Z M 2.953125 -48.421875 C 2.953125 -50.492188 3.664062 -52.207031 5.09375 -53.5625 C 6.53125 -54.914062 8.351562 -55.59375 10.5625 -55.59375 C 12.78125 -55.59375 14.601562 -54.914062 16.03125 -53.5625 C 17.46875 -52.207031 18.1875 -50.492188 18.1875 -48.421875 C 18.1875 -46.347656 17.472656 -44.625 16.046875 -43.25 C 14.609375 -41.863281 12.78125 -41.171875 10.5625 -41.171875 C 8.351562 -41.171875 6.53125 -41.859375 5.09375 -43.234375 C 3.664062 -44.617188 2.953125 -46.347656 2.953125 -48.421875 Z M 2.953125 -48.421875 "/></g></g></g><g fill="#ffffff" fill-opacity="1"><g transform="translate(162.251474, 224.901173)"><g><path d="M 35.03125 -28.234375 L 19.734375 -10.9375 L 35.109375 -10.9375 L 35.109375 0 L 2.296875 0 L 2.296875 -8.65625 L 17.671875 -25.953125 L 2.59375 -25.953125 L 2.59375 -36.890625 L 35.03125 -36.890625 Z M 35.03125 -28.234375 "/></g></g></g><g fill="#ffffff" fill-opacity="1"><g transform="translate(199.650061, 224.901173)"><g><path d="M 4.0625 0 L 4.0625 -36.890625 L 17.078125 -36.890625 L 17.078125 0 Z M 2.953125 -48.421875 C 2.953125 -50.492188 3.664062 -52.207031 5.09375 -53.5625 C 6.53125 -54.914062 8.351562 -55.59375 10.5625 -55.59375 C 12.78125 -55.59375 14.601562 -54.914062 16.03125 -53.5625 C 17.46875 -52.207031 18.1875 -50.492188 18.1875 -48.421875 C 18.1875 -46.347656 17.472656 -44.625 16.046875 -43.25 C 14.609375 -41.863281 12.78125 -41.171875 10.5625 -41.171875 C 8.351562 -41.171875 6.53125 -41.859375 5.09375 -43.234375 C 3.664062 -44.617188 2.953125 -46.347656 2.953125 -48.421875 Z M 2.953125 -48.421875 "/></g></g></g><g fill="#ffffff" fill-opacity="1"><g transform="translate(220.788401, 224.901173)"><g><path d="M 16.859375 -36.890625 L 16.859375 -32.671875 C 19.617188 -36.117188 23.335938 -37.84375 28.015625 -37.84375 C 32.054688 -37.84375 35.332031 -36.460938 37.84375 -33.703125 C 40.363281 -30.941406 41.625 -27.296875 41.625 -22.765625 L 41.625 0 L 28.609375 0 L 28.609375 -19.140625 C 28.609375 -23.628906 26.785156 -25.875 23.140625 -25.875 C 21.316406 -25.875 19.847656 -25.28125 18.734375 -24.09375 C 17.628906 -22.914062 17.078125 -21.242188 17.078125 -19.078125 L 17.078125 0 L 4.0625 0 L 4.0625 -36.890625 Z M 16.859375 -36.890625 "/></g></g></g><g fill="#ffffff" fill-opacity="1"><g transform="translate(266.095388, 224.901173)"><g><path d="M 2.359375 -18.84375 C 2.359375 -24.320312 4.035156 -28.859375 7.390625 -32.453125 C 10.742188 -36.046875 14.832031 -37.84375 19.65625 -37.84375 C 24 -37.84375 27.398438 -36.34375 29.859375 -33.34375 L 29.859375 -36.890625 L 42.796875 -36.890625 L 42.796875 -3.171875 C 42.796875 3.234375 40.9375 8.109375 37.21875 11.453125 C 33.5 14.804688 27.96875 16.484375 20.625 16.484375 C 15.394531 16.484375 11.054688 15.644531 7.609375 13.96875 L 7.609375 2.359375 C 11.109375 4.285156 14.953125 5.25 19.140625 5.25 C 26.390625 5.25 30.015625 2.34375 30.015625 -3.46875 L 30.015625 -5.328125 C 27.546875 -2.222656 24.019531 -0.671875 19.4375 -0.671875 C 14.65625 -0.671875 10.613281 -2.367188 7.3125 -5.765625 C 4.007812 -9.160156 2.359375 -13.519531 2.359375 -18.84375 Z M 17.59375 -13.671875 C 18.925781 -12.296875 20.648438 -11.609375 22.765625 -11.609375 C 24.835938 -11.609375 26.550781 -12.296875 27.90625 -13.671875 C 29.257812 -15.054688 29.9375 -16.78125 29.9375 -18.84375 C 29.9375 -20.914062 29.257812 -22.640625 27.90625 -24.015625 C 26.550781 -25.398438 24.835938 -26.09375 22.765625 -26.09375 C 20.648438 -26.09375 18.914062 -25.398438 17.5625 -24.015625 C 16.207031 -22.640625 15.53125 -20.914062 15.53125 -18.84375 C 15.53125 -16.78125 16.21875 -15.054688 17.59375 -13.671875 Z M 17.59375 -13.671875 "/></g></g></g><g fill="#ffffff" fill-opacity="1"><g transform="translate(312.95449, 224.901173)"><g/></g></g><g fill="#ffffff" fill-opacity="1"><g transform="translate(329.879932, 224.901173)"><g><path d="M 0.890625 -36.890625 L 7.609375 -36.890625 L 7.609375 -46.859375 L 20.46875 -46.859375 L 20.46875 -36.890625 L 31.640625 -36.890625 L 31.640625 -26.015625 L 20.46875 -26.015625 L 20.46875 -16.265625 C 20.46875 -14.242188 20.9375 -12.800781 21.875 -11.9375 C 22.8125 -11.070312 24.316406 -10.640625 26.390625 -10.640625 C 28.503906 -10.640625 30.472656 -11.0625 32.296875 -11.90625 L 32.296875 -0.671875 C 29.691406 0.421875 26.738281 0.96875 23.4375 0.96875 C 18.0625 0.96875 14.078125 -0.25 11.484375 -2.6875 C 8.898438 -5.132812 7.609375 -8.921875 7.609375 -14.046875 L 7.609375 -26.015625 L 0.890625 -26.015625 Z M 0.890625 -36.890625 "/></g></g></g><g fill="#ffffff" fill-opacity="1"><g transform="translate(364.100399, 224.901173)"><g><path d="M 4.0625 -51.75 L 17.078125 -51.75 L 17.078125 -32.96875 C 19.890625 -36.21875 23.535156 -37.84375 28.015625 -37.84375 C 32.054688 -37.84375 35.332031 -36.460938 37.84375 -33.703125 C 40.363281 -30.941406 41.625 -27.296875 41.625 -22.765625 L 41.625 0 L 28.609375 0 L 28.609375 -19.140625 C 28.609375 -23.628906 26.785156 -25.875 23.140625 -25.875 C 21.316406 -25.875 19.847656 -25.28125 18.734375 -24.09375 C 17.628906 -22.914062 17.078125 -21.242188 17.078125 -19.078125 L 17.078125 0 L 4.0625 0 Z M 4.0625 -51.75 "/></g></g></g><g fill="#ffffff" fill-opacity="1"><g transform="translate(409.407366, 224.901173)"><g><path d="M 8.0625 -32.296875 C 11.800781 -35.992188 16.628906 -37.84375 22.546875 -37.84375 C 28.265625 -37.84375 32.847656 -36.101562 36.296875 -32.625 C 39.742188 -29.15625 41.46875 -24.488281 41.46875 -18.625 C 41.46875 -17.34375 41.394531 -16.285156 41.25 -15.453125 L 15.296875 -15.453125 C 16.234375 -11.265625 19.460938 -9.171875 24.984375 -9.171875 C 29.222656 -9.171875 33.582031 -10.179688 38.0625 -12.203125 L 38.0625 -2 C 33.832031 -0.0195312 29.128906 0.96875 23.953125 0.96875 C 17.203125 0.96875 11.914062 -0.707031 8.09375 -4.0625 C 4.269531 -7.414062 2.359375 -12.023438 2.359375 -17.890625 C 2.359375 -23.804688 4.257812 -28.609375 8.0625 -32.296875 Z M 15.375 -22.765625 L 28.75 -22.765625 C 27.914062 -26.515625 25.773438 -28.390625 22.328125 -28.390625 C 18.628906 -28.390625 16.3125 -26.515625 15.375 -22.765625 Z M 15.375 -22.765625 "/></g></g></g><g fill="#ffffff" fill-opacity="1"><g transform="translate(452.866621, 224.901173)"><g/></g></g><g fill="#ffffff" fill-opacity="1"><g transform="translate(469.792044, 224.901173)"><g><path d="M 17.078125 -51.75 L 17.078125 -33.484375 C 19.535156 -36.390625 22.957031 -37.84375 27.34375 -37.84375 C 32.226562 -37.84375 36.367188 -36.003906 39.765625 -32.328125 C 43.171875 -28.660156 44.875 -24.019531 44.875 -18.40625 C 44.875 -12.789062 43.171875 -8.15625 39.765625 -4.5 C 36.367188 -0.851562 32.226562 0.96875 27.34375 0.96875 C 22.957031 0.96875 19.507812 -0.507812 17 -3.46875 L 17 0 L 4.0625 0 L 4.0625 -51.75 Z M 19 -13.015625 C 20.332031 -11.578125 22.101562 -10.859375 24.3125 -10.859375 C 26.53125 -10.859375 28.316406 -11.5625 29.671875 -12.96875 C 31.035156 -14.375 31.71875 -16.1875 31.71875 -18.40625 C 31.71875 -20.625 31.035156 -22.4375 29.671875 -23.84375 C 28.316406 -25.25 26.53125 -25.953125 24.3125 -25.953125 C 22.101562 -25.953125 20.316406 -25.25 18.953125 -23.84375 C 17.597656 -22.4375 16.921875 -20.625 16.921875 -18.40625 C 16.921875 -16.1875 17.613281 -14.390625 19 -13.015625 Z M 19 -13.015625 "/></g></g></g><g fill="#ffffff" fill-opacity="1"><g transform="translate(517.020708, 224.901173)"><g><path d="M 8.28125 -32.453125 C 12.175781 -36.046875 17.03125 -37.84375 22.84375 -37.84375 C 28.601562 -37.84375 33.453125 -36.046875 37.390625 -32.453125 C 41.335938 -28.859375 43.3125 -24.175781 43.3125 -18.40625 C 43.3125 -12.6875 41.335938 -8.023438 37.390625 -4.421875 C 33.453125 -0.828125 28.601562 0.96875 22.84375 0.96875 C 17.03125 0.96875 12.160156 -0.828125 8.234375 -4.421875 C 4.316406 -8.023438 2.359375 -12.6875 2.359375 -18.40625 C 2.359375 -24.175781 4.332031 -28.859375 8.28125 -32.453125 Z M 15.453125 -18.40625 C 15.453125 -16.1875 16.140625 -14.390625 17.515625 -13.015625 C 18.847656 -11.578125 20.625 -10.859375 22.84375 -10.859375 C 25.0625 -10.859375 26.847656 -11.5625 28.203125 -12.96875 C 29.554688 -14.375 30.234375 -16.1875 30.234375 -18.40625 C 30.234375 -20.625 29.554688 -22.4375 28.203125 -23.84375 C 26.847656 -25.25 25.0625 -25.953125 22.84375 -25.953125 C 20.625 -25.953125 18.835938 -25.25 17.484375 -23.84375 C 16.128906 -22.4375 15.453125 -20.625 15.453125 -18.40625 Z M 15.453125 -18.40625 "/></g></g></g><g fill="#ffffff" fill-opacity="1"><g transform="translate(562.697255, 224.901173)"><g><path d="M 16.859375 -36.890625 L 16.859375 -32.671875 C 19.617188 -36.117188 23.335938 -37.84375 28.015625 -37.84375 C 32.054688 -37.84375 35.332031 -36.460938 37.84375 -33.703125 C 40.363281 -30.941406 41.625 -27.296875 41.625 -22.765625 L 41.625 0 L 28.609375 0 L 28.609375 -19.140625 C 28.609375 -23.628906 26.785156 -25.875 23.140625 -25.875 C 21.316406 -25.875 19.847656 -25.28125 18.734375 -24.09375 C 17.628906 -22.914062 17.078125 -21.242188 17.078125 -19.078125 L 17.078125 0 L 4.0625 0 L 4.0625 -36.890625 Z M 16.859375 -36.890625 "/></g></g></g><g fill="#ffffff" fill-opacity="1"><g transform="translate(608.00426, 224.901173)"><g><path d="M 2.359375 -18.40625 C 2.359375 -24.019531 4.070312 -28.660156 7.5 -32.328125 C 10.925781 -36.003906 15.078125 -37.84375 19.953125 -37.84375 C 24.296875 -37.84375 27.695312 -36.390625 30.15625 -33.484375 L 30.15625 -51.75 L 43.171875 -51.75 L 43.171875 0 L 30.3125 0 L 30.3125 -3.546875 C 27.84375 -0.535156 24.390625 0.96875 19.953125 0.96875 C 15.078125 0.96875 10.925781 -0.851562 7.5 -4.5 C 4.070312 -8.15625 2.359375 -12.789062 2.359375 -18.40625 Z M 15.53125 -18.40625 C 15.53125 -16.1875 16.21875 -14.390625 17.59375 -13.015625 C 18.925781 -11.578125 20.703125 -10.859375 22.921875 -10.859375 C 25.140625 -10.859375 26.925781 -11.5625 28.28125 -12.96875 C 29.632812 -14.375 30.3125 -16.1875 30.3125 -18.40625 C 30.3125 -20.625 29.632812 -22.4375 28.28125 -23.84375 C 26.925781 -25.25 25.140625 -25.953125 22.921875 -25.953125 C 20.703125 -25.953125 18.914062 -25.25 17.5625 -23.84375 C 16.207031 -22.4375 15.53125 -20.625 15.53125 -18.40625 Z M 15.53125 -18.40625 "/></g></g></g><g fill="#ffffff" fill-opacity="1"><g transform="translate(655.306832, 224.901173)"><g/></g></g><g fill="#ffffff" fill-opacity="1"><g transform="translate(672.232256, 224.901173)"><g><path d="M 16.859375 -36.890625 L 16.859375 -32.671875 C 19.617188 -36.117188 23.164062 -37.84375 27.5 -37.84375 C 29.914062 -37.84375 32.082031 -37.25 34 -36.0625 C 35.925781 -34.882812 37.457031 -33.238281 38.59375 -31.125 C 41.445312 -35.601562 45.507812 -37.84375 50.78125 -37.84375 C 54.625 -37.84375 57.765625 -36.460938 60.203125 -33.703125 C 62.648438 -30.941406 63.875 -27.296875 63.875 -22.765625 L 63.875 0 L 50.859375 0 L 50.859375 -19.140625 C 50.859375 -23.628906 49.234375 -25.875 45.984375 -25.875 C 44.359375 -25.875 43.023438 -25.28125 41.984375 -24.09375 C 40.953125 -22.914062 40.4375 -21.242188 40.4375 -19.078125 L 40.4375 0 L 27.421875 0 L 27.421875 -19.140625 C 27.421875 -23.628906 25.820312 -25.875 22.625 -25.875 C 21 -25.875 19.664062 -25.28125 18.625 -24.09375 C 17.59375 -22.914062 17.078125 -21.242188 17.078125 -19.078125 L 17.078125 0 L 4.0625 0 L 4.0625 -36.890625 Z M 16.859375 -36.890625 "/></g></g></g><g fill="#ffffff" fill-opacity="1"><g transform="translate(739.712302, 224.901173)"><g><path d="M 8.28125 -32.453125 C 12.175781 -36.046875 17.03125 -37.84375 22.84375 -37.84375 C 28.601562 -37.84375 33.453125 -36.046875 37.390625 -32.453125 C 41.335938 -28.859375 43.3125 -24.175781 43.3125 -18.40625 C 43.3125 -12.6875 41.335938 -8.023438 37.390625 -4.421875 C 33.453125 -0.828125 28.601562 0.96875 22.84375 0.96875 C 17.03125 0.96875 12.160156 -0.828125 8.234375 -4.421875 C 4.316406 -8.023438 2.359375 -12.6875 2.359375 -18.40625 C 2.359375 -24.175781 4.332031 -28.859375 8.28125 -32.453125 Z M 15.453125 -18.40625 C 15.453125 -16.1875 16.140625 -14.390625 17.515625 -13.015625 C 18.847656 -11.578125 20.625 -10.859375 22.84375 -10.859375 C 25.0625 -10.859375 26.847656 -11.5625 28.203125 -12.96875 C 29.554688 -14.375 30.234375 -16.1875 30.234375 -18.40625 C 30.234375 -20.625 29.554688 -22.4375 28.203125 -23.84375 C 26.847656 -25.25 25.0625 -25.953125 22.84375 -25.953125 C 20.625 -25.953125 18.835938 -25.25 17.484375 -23.84375 C 16.128906 -22.4375 15.453125 -20.625 15.453125 -18.40625 Z M 15.453125 -18.40625 "/></g></g></g><g fill="#ffffff" fill-opacity="1"><g transform="translate(785.388811, 224.901173)"><g><path d="M 2.359375 -18.40625 C 2.359375 -24.019531 4.070312 -28.660156 7.5 -32.328125 C 10.925781 -36.003906 15.078125 -37.84375 19.953125 -37.84375 C 24.296875 -37.84375 27.695312 -36.390625 30.15625 -33.484375 L 30.15625 -51.75 L 43.171875 -51.75 L 43.171875 0 L 30.3125 0 L 30.3125 -3.546875 C 27.84375 -0.535156 24.390625 0.96875 19.953125 0.96875 C 15.078125 0.96875 10.925781 -0.851562 7.5 -4.5 C 4.070312 -8.15625 2.359375 -12.789062 2.359375 -18.40625 Z M 15.53125 -18.40625 C 15.53125 -16.1875 16.21875 -14.390625 17.59375 -13.015625 C 18.925781 -11.578125 20.703125 -10.859375 22.921875 -10.859375 C 25.140625 -10.859375 26.925781 -11.5625 28.28125 -12.96875 C 29.632812 -14.375 30.3125 -16.1875 30.3125 -18.40625 C 30.3125 -20.625 29.632812 -22.4375 28.28125 -23.84375 C 26.925781 -25.25 25.140625 -25.953125 22.921875 -25.953125 C 20.703125 -25.953125 18.914062 -25.25 17.5625 -23.84375 C 16.207031 -22.4375 15.53125 -20.625 15.53125 -18.40625 Z M 15.53125 -18.40625 "/></g></g></g><g fill="#ffffff" fill-opacity="1"><g transform="translate(832.691384, 224.901173)"><g><path d="M 8.0625 -32.296875 C 11.800781 -35.992188 16.628906 -37.84375 22.546875 -37.84375 C 28.265625 -37.84375 32.847656 -36.101562 36.296875 -32.625 C 39.742188 -29.15625 41.46875 -24.488281 41.46875 -18.625 C 41.46875 -17.34375 41.394531 -16.285156 41.25 -15.453125 L 15.296875 -15.453125 C 16.234375 -11.265625 19.460938 -9.171875 24.984375 -9.171875 C 29.222656 -9.171875 33.582031 -10.179688 38.0625 -12.203125 L 38.0625 -2 C 33.832031 -0.0195312 29.128906 0.96875 23.953125 0.96875 C 17.203125 0.96875 11.914062 -0.707031 8.09375 -4.0625 C 4.269531 -7.414062 2.359375 -12.023438 2.359375 -17.890625 C 2.359375 -23.804688 4.257812 -28.609375 8.0625 -32.296875 Z M 15.375 -22.765625 L 28.75 -22.765625 C 27.914062 -26.515625 25.773438 -28.390625 22.328125 -28.390625 C 18.628906 -28.390625 16.3125 -26.515625 15.375 -22.765625 Z M 15.375 -22.765625 "/></g></g></g><g fill="#ffffff" fill-opacity="1"><g transform="translate(876.150639, 224.901173)"><g><path d="M 17.078125 0 L 4.0625 0 L 4.0625 -51.75 L 17.078125 -51.75 Z M 17.078125 0 "/></g></g></g><g fill="#ffffff" fill-opacity="1"><g transform="translate(15.450396, 328.225979)"><g><path d="M 4.0625 -36.890625 L 17 -36.890625 L 17 -33.40625 C 19.507812 -36.363281 22.957031 -37.84375 27.34375 -37.84375 C 32.226562 -37.84375 36.367188 -36.003906 39.765625 -32.328125 C 43.171875 -28.660156 44.875 -24.019531 44.875 -18.40625 C 44.875 -12.789062 43.171875 -8.15625 39.765625 -4.5 C 36.367188 -0.851562 32.226562 0.96875 27.34375 0.96875 C 22.957031 0.96875 19.535156 -0.488281 17.078125 -3.40625 L 17.078125 15.53125 L 4.0625 15.53125 Z M 16.921875 -18.40625 C 16.921875 -16.1875 17.613281 -14.390625 19 -13.015625 C 20.332031 -11.578125 22.101562 -10.859375 24.3125 -10.859375 C 26.53125 -10.859375 28.316406 -11.5625 29.671875 -12.96875 C 31.035156 -14.375 31.71875 -16.1875 31.71875 -18.40625 C 31.71875 -20.625 31.035156 -22.4375 29.671875 -23.84375 C 28.316406 -25.25 26.53125 -25.953125 24.3125 -25.953125 C 22.101562 -25.953125 20.316406 -25.25 18.953125 -23.84375 C 17.597656 -22.4375 16.921875 -20.625 16.921875 -18.40625 Z M 16.921875 -18.40625 "/></g></g></g><g fill="#ffffff" fill-opacity="1"><g transform="translate(62.67906, 328.225979)"><g><path d="M 8.28125 -32.453125 C 12.175781 -36.046875 17.03125 -37.84375 22.84375 -37.84375 C 28.601562 -37.84375 33.453125 -36.046875 37.390625 -32.453125 C 41.335938 -28.859375 43.3125 -24.175781 43.3125 -18.40625 C 43.3125 -12.6875 41.335938 -8.023438 37.390625 -4.421875 C 33.453125 -0.828125 28.601562 0.96875 22.84375 0.96875 C 17.03125 0.96875 12.160156 -0.828125 8.234375 -4.421875 C 4.316406 -8.023438 2.359375 -12.6875 2.359375 -18.40625 C 2.359375 -24.175781 4.332031 -28.859375 8.28125 -32.453125 Z M 15.453125 -18.40625 C 15.453125 -16.1875 16.140625 -14.390625 17.515625 -13.015625 C 18.847656 -11.578125 20.625 -10.859375 22.84375 -10.859375 C 25.0625 -10.859375 26.847656 -11.5625 28.203125 -12.96875 C 29.554688 -14.375 30.234375 -16.1875 30.234375 -18.40625 C 30.234375 -20.625 29.554688 -22.4375 28.203125 -23.84375 C 26.847656 -25.25 25.0625 -25.953125 22.84375 -25.953125 C 20.625 -25.953125 18.835938 -25.25 17.484375 -23.84375 C 16.128906 -22.4375 15.453125 -20.625 15.453125 -18.40625 Z M 15.453125 -18.40625 "/></g></g></g><g fill="#ffffff" fill-opacity="1"><g transform="translate(108.355607, 328.225979)"><g><path d="M 0.59375 -36.890625 L 14.265625 -36.890625 L 20.328125 -15.15625 L 26.90625 -36.890625 L 38.359375 -36.890625 L 44.875 -15.296875 L 50.9375 -36.890625 L 64.609375 -36.890625 L 52.484375 0 L 39.109375 0 L 32.59375 -20.46875 L 26.171875 0 L 12.71875 0 Z M 0.59375 -36.890625 "/></g></g></g><g fill="#ffffff" fill-opacity="1"><g transform="translate(173.544471, 328.225979)"><g><path d="M 8.0625 -32.296875 C 11.800781 -35.992188 16.628906 -37.84375 22.546875 -37.84375 C 28.265625 -37.84375 32.847656 -36.101562 36.296875 -32.625 C 39.742188 -29.15625 41.46875 -24.488281 41.46875 -18.625 C 41.46875 -17.34375 41.394531 -16.285156 41.25 -15.453125 L 15.296875 -15.453125 C 16.234375 -11.265625 19.460938 -9.171875 24.984375 -9.171875 C 29.222656 -9.171875 33.582031 -10.179688 38.0625 -12.203125 L 38.0625 -2 C 33.832031 -0.0195312 29.128906 0.96875 23.953125 0.96875 C 17.203125 0.96875 11.914062 -0.707031 8.09375 -4.0625 C 4.269531 -7.414062 2.359375 -12.023438 2.359375 -17.890625 C 2.359375 -23.804688 4.257812 -28.609375 8.0625 -32.296875 Z M 15.375 -22.765625 L 28.75 -22.765625 C 27.914062 -26.515625 25.773438 -28.390625 22.328125 -28.390625 C 18.628906 -28.390625 16.3125 -26.515625 15.375 -22.765625 Z M 15.375 -22.765625 "/></g></g></g><g fill="#ffffff" fill-opacity="1"><g transform="translate(217.003707, 328.225979)"><g><path d="M 16.859375 -36.890625 L 16.859375 -32.078125 C 19.222656 -35.878906 22.742188 -37.78125 27.421875 -37.78125 C 28.554688 -37.78125 29.539062 -37.65625 30.375 -37.40625 L 30.375 -25.28125 C 29.050781 -25.53125 27.769531 -25.65625 26.53125 -25.65625 C 20.226562 -25.65625 17.078125 -22.003906 17.078125 -14.703125 L 17.078125 0 L 4.0625 0 L 4.0625 -36.890625 Z M 16.859375 -36.890625 "/></g></g></g><g fill="#ffffff" fill-opacity="1"><g transform="translate(248.711208, 328.225979)"><g><path d="M 8.0625 -32.296875 C 11.800781 -35.992188 16.628906 -37.84375 22.546875 -37.84375 C 28.265625 -37.84375 32.847656 -36.101562 36.296875 -32.625 C 39.742188 -29.15625 41.46875 -24.488281 41.46875 -18.625 C 41.46875 -17.34375 41.394531 -16.285156 41.25 -15.453125 L 15.296875 -15.453125 C 16.234375 -11.265625 19.460938 -9.171875 24.984375 -9.171875 C 29.222656 -9.171875 33.582031 -10.179688 38.0625 -12.203125 L 38.0625 -2 C 33.832031 -0.0195312 29.128906 0.96875 23.953125 0.96875 C 17.203125 0.96875 11.914062 -0.707031 8.09375 -4.0625 C 4.269531 -7.414062 2.359375 -12.023438 2.359375 -17.890625 C 2.359375 -23.804688 4.257812 -28.609375 8.0625 -32.296875 Z M 15.375 -22.765625 L 28.75 -22.765625 C 27.914062 -26.515625 25.773438 -28.390625 22.328125 -28.390625 C 18.628906 -28.390625 16.3125 -26.515625 15.375 -22.765625 Z M 15.375 -22.765625 "/></g></g></g><g fill="#ffffff" fill-opacity="1"><g transform="translate(292.170444, 328.225979)"><g><path d="M 2.359375 -18.40625 C 2.359375 -24.019531 4.070312 -28.660156 7.5 -32.328125 C 10.925781 -36.003906 15.078125 -37.84375 19.953125 -37.84375 C 24.296875 -37.84375 27.695312 -36.390625 30.15625 -33.484375 L 30.15625 -51.75 L 43.171875 -51.75 L 43.171875 0 L 30.3125 0 L 30.3125 -3.546875 C 27.84375 -0.535156 24.390625 0.96875 19.953125 0.96875 C 15.078125 0.96875 10.925781 -0.851562 7.5 -4.5 C 4.070312 -8.15625 2.359375 -12.789062 2.359375 -18.40625 Z M 15.53125 -18.40625 C 15.53125 -16.1875 16.21875 -14.390625 17.59375 -13.015625 C 18.925781 -11.578125 20.703125 -10.859375 22.921875 -10.859375 C 25.140625 -10.859375 26.925781 -11.5625 28.28125 -12.96875 C 29.632812 -14.375 30.3125 -16.1875 30.3125 -18.40625 C 30.3125 -20.625 29.632812 -22.4375 28.28125 -23.84375 C 26.925781 -25.25 25.140625 -25.953125 22.921875 -25.953125 C 20.703125 -25.953125 18.914062 -25.25 17.5625 -23.84375 C 16.207031 -22.4375 15.53125 -20.625 15.53125 -18.40625 Z M 15.53125 -18.40625 "/></g></g></g><g fill="#ffffff" fill-opacity="1"><g transform="translate(339.473036, 328.225979)"><g/></g></g><g fill="#ffffff" fill-opacity="1"><g transform="translate(356.398459, 328.225979)"><g><path d="M 17.078125 -51.75 L 17.078125 -33.484375 C 19.535156 -36.390625 22.957031 -37.84375 27.34375 -37.84375 C 32.226562 -37.84375 36.367188 -36.003906 39.765625 -32.328125 C 43.171875 -28.660156 44.875 -24.019531 44.875 -18.40625 C 44.875 -12.789062 43.171875 -8.15625 39.765625 -4.5 C 36.367188 -0.851562 32.226562 0.96875 27.34375 0.96875 C 22.957031 0.96875 19.507812 -0.507812 17 -3.46875 L 17 0 L 4.0625 0 L 4.0625 -51.75 Z M 19 -13.015625 C 20.332031 -11.578125 22.101562 -10.859375 24.3125 -10.859375 C 26.53125 -10.859375 28.316406 -11.5625 29.671875 -12.96875 C 31.035156 -14.375 31.71875 -16.1875 31.71875 -18.40625 C 31.71875 -20.625 31.035156 -22.4375 29.671875 -23.84375 C 28.316406 -25.25 26.53125 -25.953125 24.3125 -25.953125 C 22.101562 -25.953125 20.316406 -25.25 18.953125 -23.84375 C 17.597656 -22.4375 16.921875 -20.625 16.921875 -18.40625 C 16.921875 -16.1875 17.613281 -14.390625 19 -13.015625 Z M 19 -13.015625 "/></g></g></g><g fill="#ffffff" fill-opacity="1"><g transform="translate(403.627123, 328.225979)"><g><path d="M 0.296875 -36.890625 L 14.34375 -36.890625 L 21.4375 -14.125 L 28.609375 -36.890625 L 42.578125 -36.890625 L 22.171875 15.53125 L 7.765625 15.53125 L 14.34375 -0.375 Z M 0.296875 -36.890625 "/></g></g></g><g fill="#ffffff" fill-opacity="1"><g transform="translate(446.495071, 328.225979)"><g/></g></g><g fill="#ffffff" fill-opacity="1"><g transform="translate(463.420533, 328.225979)"><g><path d="M 35.03125 -28.234375 L 19.734375 -10.9375 L 35.109375 -10.9375 L 35.109375 0 L 2.296875 0 L 2.296875 -8.65625 L 17.671875 -25.953125 L 2.59375 -25.953125 L 2.59375 -36.890625 L 35.03125 -36.890625 Z M 35.03125 -28.234375 "/></g></g></g><g fill="#ffffff" fill-opacity="1"><g transform="translate(500.819141, 328.225979)"><g><path d="M 4.8125 0 L 4.8125 -51.75 L 18.546875 -51.75 L 18.546875 -31.1875 L 36.375 -51.75 L 52.625 -51.75 L 32.890625 -29.34375 L 53.15625 0 L 36.734375 0 L 23.734375 -19 L 18.546875 -13.078125 L 18.546875 0 Z M 4.8125 0 "/></g></g></g><g fill="#ffffff" fill-opacity="1"><g transform="translate(554.18236, 328.225979)"><g><path d="M 6.359375 -34.671875 C 9.265625 -36.785156 13.453125 -37.84375 18.921875 -37.84375 C 23.410156 -37.84375 27.773438 -37.15625 32.015625 -35.78125 L 32.015625 -25.578125 C 28.066406 -27.453125 24 -28.390625 19.8125 -28.390625 C 16.507812 -28.390625 14.859375 -27.648438 14.859375 -26.171875 C 14.859375 -25.378906 15.535156 -24.75 16.890625 -24.28125 C 18.242188 -23.8125 19.894531 -23.378906 21.84375 -22.984375 C 23.789062 -22.585938 25.738281 -22.046875 27.6875 -21.359375 C 29.632812 -20.671875 31.285156 -19.476562 32.640625 -17.78125 C 33.992188 -16.082031 34.671875 -13.953125 34.671875 -11.390625 C 34.671875 -7.546875 33.191406 -4.523438 30.234375 -2.328125 C 27.273438 -0.128906 22.988281 0.96875 17.375 0.96875 C 12.101562 0.96875 7.320312 0.078125 3.03125 -1.703125 L 3.03125 -12.34375 C 4.601562 -11.3125 6.71875 -10.4375 9.375 -9.71875 C 12.039062 -9.007812 14.457031 -8.65625 16.625 -8.65625 C 20.03125 -8.65625 21.734375 -9.488281 21.734375 -11.15625 C 21.734375 -12.050781 21.054688 -12.769531 19.703125 -13.3125 C 18.347656 -13.851562 16.695312 -14.34375 14.75 -14.78125 C 12.800781 -15.226562 10.851562 -15.796875 8.90625 -16.484375 C 6.957031 -17.171875 5.304688 -18.328125 3.953125 -19.953125 C 2.597656 -21.578125 1.921875 -23.625 1.921875 -26.09375 C 1.921875 -29.644531 3.398438 -32.503906 6.359375 -34.671875 Z M 6.359375 -34.671875 "/></g></g></g><g fill="#ffffff" fill-opacity="1"><g transform="translate(590.324485, 328.225979)"><g><path d="M 0.296875 -36.890625 L 14.34375 -36.890625 L 21.4375 -14.125 L 28.609375 -36.890625 L 42.578125 -36.890625 L 22.171875 15.53125 L 7.765625 15.53125 L 14.34375 -0.375 Z M 0.296875 -36.890625 "/></g></g></g><g fill="#ffffff" fill-opacity="1"><g transform="translate(633.192434, 328.225979)"><g><path d="M 16.859375 -36.890625 L 16.859375 -32.671875 C 19.617188 -36.117188 23.335938 -37.84375 28.015625 -37.84375 C 32.054688 -37.84375 35.332031 -36.460938 37.84375 -33.703125 C 40.363281 -30.941406 41.625 -27.296875 41.625 -22.765625 L 41.625 0 L 28.609375 0 L 28.609375 -19.140625 C 28.609375 -23.628906 26.785156 -25.875 23.140625 -25.875 C 21.316406 -25.875 19.847656 -25.28125 18.734375 -24.09375 C 17.628906 -22.914062 17.078125 -21.242188 17.078125 -19.078125 L 17.078125 0 L 4.0625 0 L 4.0625 -36.890625 Z M 16.859375 -36.890625 "/></g></g></g><g fill="#ffffff" fill-opacity="1"><g transform="translate(678.499401, 328.225979)"><g><path d="M 8.125 -32.671875 C 11.96875 -36.117188 17.144531 -37.84375 23.65625 -37.84375 C 27.550781 -37.84375 31.125 -37.179688 34.375 -35.859375 L 34.375 -23.65625 C 31.320312 -25.1875 28.191406 -25.953125 24.984375 -25.953125 C 22.078125 -25.953125 19.796875 -25.269531 18.140625 -23.90625 C 16.492188 -22.550781 15.671875 -20.71875 15.671875 -18.40625 C 15.671875 -16.132812 16.492188 -14.304688 18.140625 -12.921875 C 19.796875 -11.546875 22.078125 -10.859375 24.984375 -10.859375 C 28.140625 -10.859375 31.269531 -11.675781 34.375 -13.3125 L 34.375 -0.96875 C 31.070312 0.320312 27.5 0.96875 23.65625 0.96875 C 17.144531 0.96875 11.96875 -0.769531 8.125 -4.25 C 4.28125 -7.726562 2.359375 -12.445312 2.359375 -18.40625 C 2.359375 -24.414062 4.28125 -29.171875 8.125 -32.671875 Z M 8.125 -32.671875 "/></g></g></g><g fill="#ffffff" fill-opacity="1"><g transform="translate(715.294821, 328.225979)"><g/></g></g><g fill="#ffffff" fill-opacity="1"><g transform="translate(732.220264, 328.225979)"><g/></g></g><g fill="#ffffff" fill-opacity="1"><g transform="translate(749.145707, 328.225979)"><g/></g></g><g fill="#ffffff" fill-opacity="1"><g transform="translate(766.071149, 328.225979)"><g/></g></g><g fill="#ffffff" fill-opacity="1"><g transform="translate(782.996592, 328.225979)"><g/></g></g><g fill="#ffffff" fill-opacity="1"><g transform="translate(799.922035, 328.225979)"><g/></g></g><g fill="#ffffff" fill-opacity="1"><g transform="translate(816.847477, 328.225979)"><g/></g></g><g fill="#ffffff" fill-opacity="1"><g transform="translate(833.77292, 328.225979)"><g/></g></g><g fill="#ffffff" fill-opacity="1"><g transform="translate(850.698362, 328.225979)"><g/></g></g><g fill="#ffffff" fill-opacity="1"><g transform="translate(867.623805, 328.225979)"><g/></g></g></svg>