<svg xmlns="http://www.w3.org/2000/svg" xmlns:xlink="http://www.w3.org/1999/xlink" width="1200" zoomAndPan="magnify" viewBox="0 0 900 412.499988" height="550" preserveAspectRatio="xMidYMid meet" version="1.0"><defs><g/></defs><g fill="#ffffff" fill-opacity="1"><g transform="translate(0.0992824, 122.226717)"><g><path d="M 10.609375 -45.84375 C 15.878906 -50.769531 22.769531 -53.234375 31.28125 -53.234375 C 36.863281 -53.234375 41.695312 -52.210938 45.78125 -50.171875 L 45.78125 -37.1875 C 41.644531 -39.320312 37.1875 -40.390625 32.40625 -40.390625 C 27.675781 -40.390625 23.90625 -39.117188 21.09375 -36.578125 C 18.28125 -34.046875 16.875 -30.5625 16.875 -26.125 C 16.875 -21.695312 18.28125 -18.210938 21.09375 -15.671875 C 23.90625 -13.140625 27.675781 -11.875 32.40625 -11.875 C 37.1875 -11.875 41.644531 -12.941406 45.78125 -15.078125 L 45.78125 -2.09375 C 41.695312 -0.0507812 36.863281 0.96875 31.28125 0.96875 C 22.769531 0.96875 15.863281 -1.492188 10.5625 -6.421875 C 5.257812 -11.347656 2.609375 -17.914062 2.609375 -26.125 C 2.609375 -34.34375 5.273438 -40.914062 10.609375 -45.84375 Z M 10.609375 -45.84375 "/></g></g></g><g fill="#ffffff" fill-opacity="1"><g transform="translate(48.859559, 122.226717)"><g><path d="M 8.359375 -32.78125 C 12.296875 -36.414062 17.203125 -38.234375 23.078125 -38.234375 C 28.898438 -38.234375 33.800781 -36.414062 37.78125 -32.78125 C 41.757812 -29.144531 43.75 -24.414062 43.75 -18.59375 C 43.75 -12.820312 41.757812 -8.117188 37.78125 -4.484375 C 33.800781 -0.847656 28.898438 0.96875 23.078125 0.96875 C 17.203125 0.96875 12.285156 -0.847656 8.328125 -4.484375 C 4.367188 -8.117188 2.390625 -12.820312 2.390625 -18.59375 C 2.390625 -24.414062 4.378906 -29.144531 8.359375 -32.78125 Z M 15.609375 -18.59375 C 15.609375 -16.351562 16.304688 -14.535156 17.703125 -13.140625 C 19.046875 -11.703125 20.835938 -10.984375 23.078125 -10.984375 C 25.316406 -10.984375 27.117188 -11.691406 28.484375 -13.109375 C 29.859375 -14.523438 30.546875 -16.351562 30.546875 -18.59375 C 30.546875 -20.832031 29.859375 -22.660156 28.484375 -24.078125 C 27.117188 -25.492188 25.316406 -26.203125 23.078125 -26.203125 C 20.835938 -26.203125 19.03125 -25.492188 17.65625 -24.078125 C 16.289062 -22.660156 15.609375 -20.832031 15.609375 -18.59375 Z M 15.609375 -18.59375 "/></g></g></g><g fill="#ffffff" fill-opacity="1"><g transform="translate(95.00635, 122.226717)"><g><path d="M 17.03125 -37.265625 L 17.03125 -33 C 19.8125 -36.488281 23.394531 -38.234375 27.78125 -38.234375 C 30.21875 -38.234375 32.40625 -37.632812 34.34375 -36.4375 C 36.289062 -35.238281 37.835938 -33.570312 38.984375 -31.4375 C 41.867188 -35.96875 45.972656 -38.234375 51.296875 -38.234375 C 55.179688 -38.234375 58.351562 -36.835938 60.8125 -34.046875 C 63.28125 -31.265625 64.515625 -27.582031 64.515625 -23 L 64.515625 0 L 51.375 0 L 51.375 -19.34375 C 51.375 -23.875 49.734375 -26.140625 46.453125 -26.140625 C 44.804688 -26.140625 43.457031 -25.539062 42.40625 -24.34375 C 41.363281 -23.144531 40.84375 -21.453125 40.84375 -19.265625 L 40.84375 0 L 27.703125 0 L 27.703125 -19.34375 C 27.703125 -23.875 26.082031 -26.140625 22.84375 -26.140625 C 21.207031 -26.140625 19.863281 -25.539062 18.8125 -24.34375 C 17.769531 -23.144531 17.25 -21.453125 17.25 -19.265625 L 17.25 0 L 4.109375 0 L 4.109375 -37.265625 Z M 17.03125 -37.265625 "/></g></g></g><g fill="#ffffff" fill-opacity="1"><g transform="translate(163.181146, 122.226717)"><g><path d="M 17.03125 -37.265625 L 17.03125 -33 C 19.8125 -36.488281 23.394531 -38.234375 27.78125 -38.234375 C 30.21875 -38.234375 32.40625 -37.632812 34.34375 -36.4375 C 36.289062 -35.238281 37.835938 -33.570312 38.984375 -31.4375 C 41.867188 -35.96875 45.972656 -38.234375 51.296875 -38.234375 C 55.179688 -38.234375 58.351562 -36.835938 60.8125 -34.046875 C 63.28125 -31.265625 64.515625 -27.582031 64.515625 -23 L 64.515625 0 L 51.375 0 L 51.375 -19.34375 C 51.375 -23.875 49.734375 -26.140625 46.453125 -26.140625 C 44.804688 -26.140625 43.457031 -25.539062 42.40625 -24.34375 C 41.363281 -23.144531 40.84375 -21.453125 40.84375 -19.265625 L 40.84375 0 L 27.703125 0 L 27.703125 -19.34375 C 27.703125 -23.875 26.082031 -26.140625 22.84375 -26.140625 C 21.207031 -26.140625 19.863281 -25.539062 18.8125 -24.34375 C 17.769531 -23.144531 17.25 -21.453125 17.25 -19.265625 L 17.25 0 L 4.109375 0 L 4.109375 -37.265625 Z M 17.03125 -37.265625 "/></g></g></g><g fill="#ffffff" fill-opacity="1"><g transform="translate(231.355943, 122.226717)"><g><path d="M 3.734375 -37.265625 L 16.875 -37.265625 L 16.875 -17.546875 C 16.875 -13.265625 18.617188 -11.125 22.109375 -11.125 C 23.941406 -11.125 25.414062 -11.71875 26.53125 -12.90625 C 27.65625 -14.101562 28.21875 -15.800781 28.21875 -18 L 28.21875 -37.265625 L 41.375 -37.265625 L 41.375 0 L 28.375 0 L 28.375 -4.1875 C 25.488281 -0.75 21.726562 0.96875 17.09375 0.96875 C 13.0625 0.96875 9.828125 -0.359375 7.390625 -3.015625 C 4.953125 -5.679688 3.734375 -9.304688 3.734375 -13.890625 Z M 3.734375 -37.265625 "/></g></g></g><g fill="#ffffff" fill-opacity="1"><g transform="translate(276.830691, 122.226717)"><g><path d="M 17.03125 -37.265625 L 17.03125 -33 C 19.8125 -36.488281 23.566406 -38.234375 28.296875 -38.234375 C 32.378906 -38.234375 35.691406 -36.835938 38.234375 -34.046875 C 40.773438 -31.265625 42.046875 -27.582031 42.046875 -23 L 42.046875 0 L 28.890625 0 L 28.890625 -19.34375 C 28.890625 -23.875 27.050781 -26.140625 23.375 -26.140625 C 21.53125 -26.140625 20.046875 -25.539062 18.921875 -24.34375 C 17.804688 -23.144531 17.25 -21.453125 17.25 -19.265625 L 17.25 0 L 4.109375 0 L 4.109375 -37.265625 Z M 17.03125 -37.265625 "/></g></g></g><g fill="#ffffff" fill-opacity="1"><g transform="translate(322.604116, 122.226717)"><g><path d="M 4.109375 0 L 4.109375 -37.265625 L 17.25 -37.265625 L 17.25 0 Z M 2.984375 -48.90625 C 2.984375 -51 3.703125 -52.726562 5.140625 -54.09375 C 6.585938 -55.46875 8.429688 -56.15625 10.671875 -56.15625 C 12.910156 -56.15625 14.753906 -55.46875 16.203125 -54.09375 C 17.648438 -52.726562 18.375 -51 18.375 -48.90625 C 18.375 -46.820312 17.648438 -45.082031 16.203125 -43.6875 C 14.753906 -42.289062 12.910156 -41.59375 10.671875 -41.59375 C 8.429688 -41.59375 6.585938 -42.289062 5.140625 -43.6875 C 3.703125 -45.082031 2.984375 -46.820312 2.984375 -48.90625 Z M 2.984375 -48.90625 "/></g></g></g><g fill="#ffffff" fill-opacity="1"><g transform="translate(343.960077, 122.226717)"><g><path d="M 0.890625 -37.265625 L 7.6875 -37.265625 L 7.6875 -47.34375 L 20.6875 -47.34375 L 20.6875 -37.265625 L 31.953125 -37.265625 L 31.953125 -26.28125 L 20.6875 -26.28125 L 20.6875 -16.421875 C 20.6875 -14.378906 21.15625 -12.921875 22.09375 -12.046875 C 23.039062 -11.179688 24.5625 -10.75 26.65625 -10.75 C 28.800781 -10.75 30.789062 -11.171875 32.625 -12.015625 L 32.625 -0.671875 C 29.988281 0.421875 27.003906 0.96875 23.671875 0.96875 C 18.242188 0.96875 14.222656 -0.257812 11.609375 -2.71875 C 8.992188 -5.1875 7.6875 -9.007812 7.6875 -14.1875 L 7.6875 -26.28125 L 0.890625 -26.28125 Z M 0.890625 -37.265625 "/></g></g></g><g fill="#ffffff" fill-opacity="1"><g transform="translate(378.532846, 122.226717)"><g><path d="M 0.296875 -37.265625 L 14.484375 -37.265625 L 21.65625 -14.265625 L 28.890625 -37.265625 L 43.015625 -37.265625 L 22.40625 15.6875 L 7.84375 15.6875 L 14.484375 -0.375 Z M 0.296875 -37.265625 "/></g></g></g><g fill="#ffffff" fill-opacity="1"><g transform="translate(421.842123, 122.226717)"><g/></g></g><g fill="#ffffff" fill-opacity="1"><g transform="translate(438.941834, 122.226717)"><g><path d="M 2.390625 -18.59375 C 2.390625 -24.269531 4.117188 -28.960938 7.578125 -32.671875 C 11.035156 -36.378906 15.226562 -38.234375 20.15625 -38.234375 C 24.539062 -38.234375 27.976562 -36.765625 30.46875 -33.828125 L 30.46875 -52.265625 L 43.609375 -52.265625 L 43.609375 0 L 30.609375 0 L 30.609375 -3.578125 C 28.117188 -0.546875 24.632812 0.96875 20.15625 0.96875 C 15.226562 0.96875 11.035156 -0.867188 7.578125 -4.546875 C 4.117188 -8.234375 2.390625 -12.914062 2.390625 -18.59375 Z M 15.6875 -18.59375 C 15.6875 -16.351562 16.378906 -14.535156 17.765625 -13.140625 C 19.109375 -11.703125 20.898438 -10.984375 23.140625 -10.984375 C 25.390625 -10.984375 27.195312 -11.691406 28.5625 -13.109375 C 29.925781 -14.523438 30.609375 -16.351562 30.609375 -18.59375 C 30.609375 -20.832031 29.925781 -22.660156 28.5625 -24.078125 C 27.195312 -25.492188 25.390625 -26.203125 23.140625 -26.203125 C 20.898438 -26.203125 19.097656 -25.492188 17.734375 -24.078125 C 16.367188 -22.660156 15.6875 -20.832031 15.6875 -18.59375 Z M 15.6875 -18.59375 "/></g></g></g><g fill="#ffffff" fill-opacity="1"><g transform="translate(486.73139, 122.226717)"><g><path d="M 17.03125 -37.265625 L 17.03125 -32.40625 C 19.414062 -36.238281 22.972656 -38.15625 27.703125 -38.15625 C 28.847656 -38.15625 29.84375 -38.03125 30.6875 -37.78125 L 30.6875 -25.53125 C 29.34375 -25.78125 28.050781 -25.90625 26.8125 -25.90625 C 20.4375 -25.90625 17.25 -22.222656 17.25 -14.859375 L 17.25 0 L 4.109375 0 L 4.109375 -37.265625 Z M 17.03125 -37.265625 "/></g></g></g><g fill="#ffffff" fill-opacity="1"><g transform="translate(518.765322, 122.226717)"><g><path d="M 4.109375 0 L 4.109375 -37.265625 L 17.25 -37.265625 L 17.25 0 Z M 2.984375 -48.90625 C 2.984375 -51 3.703125 -52.726562 5.140625 -54.09375 C 6.585938 -55.46875 8.429688 -56.15625 10.671875 -56.15625 C 12.910156 -56.15625 14.753906 -55.46875 16.203125 -54.09375 C 17.648438 -52.726562 18.375 -51 18.375 -48.90625 C 18.375 -46.820312 17.648438 -45.082031 16.203125 -43.6875 C 14.753906 -42.289062 12.910156 -41.59375 10.671875 -41.59375 C 8.429688 -41.59375 6.585938 -42.289062 5.140625 -43.6875 C 3.703125 -45.082031 2.984375 -46.820312 2.984375 -48.90625 Z M 2.984375 -48.90625 "/></g></g></g><g fill="#ffffff" fill-opacity="1"><g transform="translate(540.121303, 122.226717)"><g><path d="M 0.296875 -37.265625 L 14.40625 -37.265625 L 21.5 -13.890625 L 28.59375 -37.265625 L 42.484375 -37.265625 L 28.59375 0 L 14.265625 0 Z M 0.296875 -37.265625 "/></g></g></g><g fill="#ffffff" fill-opacity="1"><g transform="translate(582.982566, 122.226717)"><g><path d="M 8.140625 -32.625 C 11.921875 -36.363281 16.800781 -38.234375 22.78125 -38.234375 C 28.550781 -38.234375 33.175781 -36.476562 36.65625 -32.96875 C 40.144531 -29.457031 41.890625 -24.738281 41.890625 -18.8125 C 41.890625 -17.519531 41.816406 -16.453125 41.671875 -15.609375 L 15.453125 -15.609375 C 16.398438 -11.378906 19.660156 -9.265625 25.234375 -9.265625 C 29.515625 -9.265625 33.921875 -10.285156 38.453125 -12.328125 L 38.453125 -2.015625 C 34.171875 -0.0234375 29.414062 0.96875 24.1875 0.96875 C 17.375 0.96875 12.035156 -0.722656 8.171875 -4.109375 C 4.316406 -7.492188 2.390625 -12.148438 2.390625 -18.078125 C 2.390625 -24.046875 4.304688 -28.894531 8.140625 -32.625 Z M 15.53125 -23 L 29.046875 -23 C 28.203125 -26.78125 26.035156 -28.671875 22.546875 -28.671875 C 18.816406 -28.671875 16.476562 -26.78125 15.53125 -23 Z M 15.53125 -23 "/></g></g></g><g fill="#ffffff" fill-opacity="1"><g transform="translate(626.889199, 122.226717)"><g><path d="M 17.03125 -37.265625 L 17.03125 -33 C 19.8125 -36.488281 23.566406 -38.234375 28.296875 -38.234375 C 32.378906 -38.234375 35.691406 -36.835938 38.234375 -34.046875 C 40.773438 -31.265625 42.046875 -27.582031 42.046875 -23 L 42.046875 0 L 28.890625 0 L 28.890625 -19.34375 C 28.890625 -23.875 27.050781 -26.140625 23.375 -26.140625 C 21.53125 -26.140625 20.046875 -25.539062 18.921875 -24.34375 C 17.804688 -23.144531 17.25 -21.453125 17.25 -19.265625 L 17.25 0 L 4.109375 0 L 4.109375 -37.265625 Z M 17.03125 -37.265625 "/></g></g></g><g fill="#ffffff" fill-opacity="1"><g transform="translate(672.662605, 122.226717)"><g/></g></g><g fill="#ffffff" fill-opacity="1"><g transform="translate(689.762277, 122.226717)"><g><path d="M 4.859375 0 L 4.859375 -52.265625 L 25.46875 -52.265625 C 33.132812 -52.265625 39.429688 -49.875 44.359375 -45.09375 C 49.285156 -40.320312 51.75 -34.003906 51.75 -26.140625 C 51.75 -18.273438 49.285156 -11.953125 44.359375 -7.171875 C 39.429688 -2.390625 33.132812 0 25.46875 0 Z M 18.75 -39.71875 L 18.75 -12.546875 L 25.09375 -12.546875 C 28.925781 -12.546875 31.972656 -13.710938 34.234375 -16.046875 C 36.503906 -18.390625 37.640625 -21.75 37.640625 -26.125 C 37.640625 -30.507812 36.503906 -33.867188 34.234375 -36.203125 C 31.972656 -38.546875 28.925781 -39.71875 25.09375 -39.71875 Z M 18.75 -39.71875 "/></g></g></g><g fill="#ffffff" fill-opacity="1"><g transform="translate(744.122892, 122.226717)"><g><path d="M 19.859375 -52.265625 L 35.546875 -52.265625 L 55.109375 0 L 40.84375 0 L 37.640625 -9.328125 L 17.703125 -9.328125 L 14.484375 0 L 0.21875 0 Z M 21.4375 -20.3125 L 33.90625 -20.3125 L 27.703125 -38.453125 Z M 21.4375 -20.3125 "/></g></g></g><g fill="#ffffff" fill-opacity="1"><g transform="translate(799.528878, 122.226717)"><g><path d="M 2.609375 -26.140625 C 2.609375 -33.804688 5.207031 -40.238281 10.40625 -45.4375 C 15.613281 -50.632812 22.175781 -53.234375 30.09375 -53.234375 C 38.007812 -53.234375 44.566406 -50.632812 49.765625 -45.4375 C 54.972656 -40.238281 57.578125 -33.804688 57.578125 -26.140625 C 57.578125 -18.472656 54.988281 -12.050781 49.8125 -6.875 C 44.582031 -1.644531 38.007812 0.96875 30.09375 0.96875 C 22.175781 0.96875 15.613281 -1.628906 10.40625 -6.828125 C 5.207031 -12.035156 2.609375 -18.472656 2.609375 -26.140625 Z M 16.71875 -26.140625 C 16.71875 -22.003906 17.960938 -18.617188 20.453125 -15.984375 C 22.898438 -13.296875 26.113281 -11.953125 30.09375 -11.953125 C 34.070312 -11.953125 37.28125 -13.28125 39.71875 -15.9375 C 42.164062 -18.601562 43.390625 -22 43.390625 -26.125 C 43.390625 -30.257812 42.164062 -33.660156 39.71875 -36.328125 C 37.28125 -38.992188 34.070312 -40.328125 30.09375 -40.328125 C 26.113281 -40.328125 22.890625 -38.992188 20.421875 -36.328125 C 17.953125 -33.660156 16.71875 -30.265625 16.71875 -26.140625 Z M 16.71875 -26.140625 "/></g></g></g><g fill="#ffffff" fill-opacity="1"><g transform="translate(859.633907, 122.226717)"><g/></g></g><g fill="#ffffff" fill-opacity="1"><g transform="translate(876.733598, 122.226717)"><g/></g></g><g fill="#ffffff" fill-opacity="1"><g transform="translate(3.600118, 226.615259)"><g><path d="M 3.734375 -37.265625 L 16.875 -37.265625 L 16.875 -17.546875 C 16.875 -13.265625 18.617188 -11.125 22.109375 -11.125 C 23.941406 -11.125 25.414062 -11.71875 26.53125 -12.90625 C 27.65625 -14.101562 28.21875 -15.800781 28.21875 -18 L 28.21875 -37.265625 L 41.375 -37.265625 L 41.375 0 L 28.375 0 L 28.375 -4.1875 C 25.488281 -0.75 21.726562 0.96875 17.09375 0.96875 C 13.0625 0.96875 9.828125 -0.359375 7.390625 -3.015625 C 4.953125 -5.679688 3.734375 -9.304688 3.734375 -13.890625 Z M 3.734375 -37.265625 "/></g></g></g><g fill="#ffffff" fill-opacity="1"><g transform="translate(49.074865, 226.615259)"><g><path d="M 0.890625 -37.265625 L 7.6875 -37.265625 L 7.6875 -47.34375 L 20.6875 -47.34375 L 20.6875 -37.265625 L 31.953125 -37.265625 L 31.953125 -26.28125 L 20.6875 -26.28125 L 20.6875 -16.421875 C 20.6875 -14.378906 21.15625 -12.921875 22.09375 -12.046875 C 23.039062 -11.179688 24.5625 -10.75 26.65625 -10.75 C 28.800781 -10.75 30.789062 -11.171875 32.625 -12.015625 L 32.625 -0.671875 C 29.988281 0.421875 27.003906 0.96875 23.671875 0.96875 C 18.242188 0.96875 14.222656 -0.257812 11.609375 -2.71875 C 8.992188 -5.1875 7.6875 -9.007812 7.6875 -14.1875 L 7.6875 -26.28125 L 0.890625 -26.28125 Z M 0.890625 -37.265625 "/></g></g></g><g fill="#ffffff" fill-opacity="1"><g transform="translate(83.647615, 226.615259)"><g><path d="M 4.109375 0 L 4.109375 -37.265625 L 17.25 -37.265625 L 17.25 0 Z M 2.984375 -48.90625 C 2.984375 -51 3.703125 -52.726562 5.140625 -54.09375 C 6.585938 -55.46875 8.429688 -56.15625 10.671875 -56.15625 C 12.910156 -56.15625 14.753906 -55.46875 16.203125 -54.09375 C 17.648438 -52.726562 18.375 -51 18.375 -48.90625 C 18.375 -46.820312 17.648438 -45.082031 16.203125 -43.6875 C 14.753906 -42.289062 12.910156 -41.59375 10.671875 -41.59375 C 8.429688 -41.59375 6.585938 -42.289062 5.140625 -43.6875 C 3.703125 -45.082031 2.984375 -46.820312 2.984375 -48.90625 Z M 2.984375 -48.90625 "/></g></g></g><g fill="#ffffff" fill-opacity="1"><g transform="translate(105.003576, 226.615259)"><g><path d="M 17.25 0 L 4.109375 0 L 4.109375 -52.265625 L 17.25 -52.265625 Z M 17.25 0 "/></g></g></g><g fill="#ffffff" fill-opacity="1"><g transform="translate(126.359538, 226.615259)"><g><path d="M 4.109375 0 L 4.109375 -37.265625 L 17.25 -37.265625 L 17.25 0 Z M 2.984375 -48.90625 C 2.984375 -51 3.703125 -52.726562 5.140625 -54.09375 C 6.585938 -55.46875 8.429688 -56.15625 10.671875 -56.15625 C 12.910156 -56.15625 14.753906 -55.46875 16.203125 -54.09375 C 17.648438 -52.726562 18.375 -51 18.375 -48.90625 C 18.375 -46.820312 17.648438 -45.082031 16.203125 -43.6875 C 14.753906 -42.289062 12.910156 -41.59375 10.671875 -41.59375 C 8.429688 -41.59375 6.585938 -42.289062 5.140625 -43.6875 C 3.703125 -45.082031 2.984375 -46.820312 2.984375 -48.90625 Z M 2.984375 -48.90625 "/></g></g></g><g fill="#ffffff" fill-opacity="1"><g transform="translate(147.715499, 226.615259)"><g><path d="M 35.390625 -28.53125 L 19.9375 -11.046875 L 35.46875 -11.046875 L 35.46875 0 L 2.3125 0 L 2.3125 -8.734375 L 17.84375 -26.203125 L 2.609375 -26.203125 L 2.609375 -37.265625 L 35.390625 -37.265625 Z M 35.390625 -28.53125 "/></g></g></g><g fill="#ffffff" fill-opacity="1"><g transform="translate(185.499108, 226.615259)"><g><path d="M 4.109375 0 L 4.109375 -37.265625 L 17.25 -37.265625 L 17.25 0 Z M 2.984375 -48.90625 C 2.984375 -51 3.703125 -52.726562 5.140625 -54.09375 C 6.585938 -55.46875 8.429688 -56.15625 10.671875 -56.15625 C 12.910156 -56.15625 14.753906 -55.46875 16.203125 -54.09375 C 17.648438 -52.726562 18.375 -51 18.375 -48.90625 C 18.375 -46.820312 17.648438 -45.082031 16.203125 -43.6875 C 14.753906 -42.289062 12.910156 -41.59375 10.671875 -41.59375 C 8.429688 -41.59375 6.585938 -42.289062 5.140625 -43.6875 C 3.703125 -45.082031 2.984375 -46.820312 2.984375 -48.90625 Z M 2.984375 -48.90625 "/></g></g></g><g fill="#ffffff" fill-opacity="1"><g transform="translate(206.85507, 226.615259)"><g><path d="M 17.03125 -37.265625 L 17.03125 -33 C 19.8125 -36.488281 23.566406 -38.234375 28.296875 -38.234375 C 32.378906 -38.234375 35.691406 -36.835938 38.234375 -34.046875 C 40.773438 -31.265625 42.046875 -27.582031 42.046875 -23 L 42.046875 0 L 28.890625 0 L 28.890625 -19.34375 C 28.890625 -23.875 27.050781 -26.140625 23.375 -26.140625 C 21.53125 -26.140625 20.046875 -25.539062 18.921875 -24.34375 C 17.804688 -23.144531 17.25 -21.453125 17.25 -19.265625 L 17.25 0 L 4.109375 0 L 4.109375 -37.265625 Z M 17.03125 -37.265625 "/></g></g></g><g fill="#ffffff" fill-opacity="1"><g transform="translate(252.628495, 226.615259)"><g><path d="M 2.390625 -19.046875 C 2.390625 -24.566406 4.082031 -29.144531 7.46875 -32.78125 C 10.851562 -36.414062 14.984375 -38.234375 19.859375 -38.234375 C 24.242188 -38.234375 27.679688 -36.710938 30.171875 -33.671875 L 30.171875 -37.265625 L 43.234375 -37.265625 L 43.234375 -3.203125 C 43.234375 3.265625 41.351562 8.191406 37.59375 11.578125 C 33.832031 14.960938 28.242188 16.65625 20.828125 16.65625 C 15.554688 16.65625 11.175781 15.804688 7.6875 14.109375 L 7.6875 2.390625 C 11.226562 4.328125 15.113281 5.296875 19.34375 5.296875 C 26.65625 5.296875 30.3125 2.359375 30.3125 -3.515625 L 30.3125 -5.375 C 27.820312 -2.238281 24.265625 -0.671875 19.640625 -0.671875 C 14.804688 -0.671875 10.722656 -2.390625 7.390625 -5.828125 C 4.054688 -9.265625 2.390625 -13.671875 2.390625 -19.046875 Z M 17.765625 -13.8125 C 19.109375 -12.414062 20.851562 -11.71875 23 -11.71875 C 25.09375 -11.71875 26.820312 -12.414062 28.1875 -13.8125 C 29.550781 -15.207031 30.234375 -16.945312 30.234375 -19.03125 C 30.234375 -21.125 29.550781 -22.867188 28.1875 -24.265625 C 26.820312 -25.660156 25.09375 -26.359375 23 -26.359375 C 20.851562 -26.359375 19.097656 -25.660156 17.734375 -24.265625 C 16.367188 -22.867188 15.6875 -21.125 15.6875 -19.03125 C 15.6875 -16.945312 16.378906 -15.207031 17.765625 -13.8125 Z M 17.765625 -13.8125 "/></g></g></g><g fill="#ffffff" fill-opacity="1"><g transform="translate(299.970015, 226.615259)"><g/></g></g><g fill="#ffffff" fill-opacity="1"><g transform="translate(317.069706, 226.615259)"><g><path d="M 0.890625 -37.265625 L 7.6875 -37.265625 L 7.6875 -47.34375 L 20.6875 -47.34375 L 20.6875 -37.265625 L 31.953125 -37.265625 L 31.953125 -26.28125 L 20.6875 -26.28125 L 20.6875 -16.421875 C 20.6875 -14.378906 21.15625 -12.921875 22.09375 -12.046875 C 23.039062 -11.179688 24.5625 -10.75 26.65625 -10.75 C 28.800781 -10.75 30.789062 -11.171875 32.625 -12.015625 L 32.625 -0.671875 C 29.988281 0.421875 27.003906 0.96875 23.671875 0.96875 C 18.242188 0.96875 14.222656 -0.257812 11.609375 -2.71875 C 8.992188 -5.1875 7.6875 -9.007812 7.6875 -14.1875 L 7.6875 -26.28125 L 0.890625 -26.28125 Z M 0.890625 -37.265625 "/></g></g></g><g fill="#ffffff" fill-opacity="1"><g transform="translate(351.642475, 226.615259)"><g><path d="M 4.109375 -52.265625 L 17.25 -52.265625 L 17.25 -33.296875 C 20.082031 -36.585938 23.765625 -38.234375 28.296875 -38.234375 C 32.378906 -38.234375 35.691406 -36.835938 38.234375 -34.046875 C 40.773438 -31.265625 42.046875 -27.582031 42.046875 -23 L 42.046875 0 L 28.890625 0 L 28.890625 -19.34375 C 28.890625 -23.875 27.050781 -26.140625 23.375 -26.140625 C 21.53125 -26.140625 20.046875 -25.539062 18.921875 -24.34375 C 17.804688 -23.144531 17.25 -21.453125 17.25 -19.265625 L 17.25 0 L 4.109375 0 Z M 4.109375 -52.265625 "/></g></g></g><g fill="#ffffff" fill-opacity="1"><g transform="translate(397.415881, 226.615259)"><g><path d="M 8.140625 -32.625 C 11.921875 -36.363281 16.800781 -38.234375 22.78125 -38.234375 C 28.550781 -38.234375 33.175781 -36.476562 36.65625 -32.96875 C 40.144531 -29.457031 41.890625 -24.738281 41.890625 -18.8125 C 41.890625 -17.519531 41.816406 -16.453125 41.671875 -15.609375 L 15.453125 -15.609375 C 16.398438 -11.378906 19.660156 -9.265625 25.234375 -9.265625 C 29.515625 -9.265625 33.921875 -10.285156 38.453125 -12.328125 L 38.453125 -2.015625 C 34.171875 -0.0234375 29.414062 0.96875 24.1875 0.96875 C 17.375 0.96875 12.035156 -0.722656 8.171875 -4.109375 C 4.316406 -7.492188 2.390625 -12.148438 2.390625 -18.078125 C 2.390625 -24.046875 4.304688 -28.894531 8.140625 -32.625 Z M 15.53125 -23 L 29.046875 -23 C 28.203125 -26.78125 26.035156 -28.671875 22.546875 -28.671875 C 18.816406 -28.671875 16.476562 -26.78125 15.53125 -23 Z M 15.53125 -23 "/></g></g></g><g fill="#ffffff" fill-opacity="1"><g transform="translate(441.322552, 226.615259)"><g/></g></g><g fill="#ffffff" fill-opacity="1"><g transform="translate(458.422224, 226.615259)"><g><path d="M 17.25 -52.265625 L 17.25 -33.828125 C 19.738281 -36.765625 23.195312 -38.234375 27.625 -38.234375 C 32.550781 -38.234375 36.734375 -36.378906 40.171875 -32.671875 C 43.609375 -28.960938 45.328125 -24.269531 45.328125 -18.59375 C 45.328125 -12.914062 43.609375 -8.234375 40.171875 -4.546875 C 36.734375 -0.867188 32.550781 0.96875 27.625 0.96875 C 23.195312 0.96875 19.710938 -0.523438 17.171875 -3.515625 L 17.171875 0 L 4.109375 0 L 4.109375 -52.265625 Z M 19.1875 -13.140625 C 20.53125 -11.703125 22.320312 -10.984375 24.5625 -10.984375 C 26.800781 -10.984375 28.601562 -11.691406 29.96875 -13.109375 C 31.34375 -14.523438 32.03125 -16.351562 32.03125 -18.59375 C 32.03125 -20.832031 31.34375 -22.660156 29.96875 -24.078125 C 28.601562 -25.492188 26.800781 -26.203125 24.5625 -26.203125 C 22.320312 -26.203125 20.515625 -25.492188 19.140625 -24.078125 C 17.773438 -22.660156 17.09375 -20.832031 17.09375 -18.59375 C 17.09375 -16.351562 17.789062 -14.535156 19.1875 -13.140625 Z M 19.1875 -13.140625 "/></g></g></g><g fill="#ffffff" fill-opacity="1"><g transform="translate(506.137111, 226.615259)"><g><path d="M 8.359375 -32.78125 C 12.296875 -36.414062 17.203125 -38.234375 23.078125 -38.234375 C 28.898438 -38.234375 33.800781 -36.414062 37.78125 -32.78125 C 41.757812 -29.144531 43.75 -24.414062 43.75 -18.59375 C 43.75 -12.820312 41.757812 -8.117188 37.78125 -4.484375 C 33.800781 -0.847656 28.898438 0.96875 23.078125 0.96875 C 17.203125 0.96875 12.285156 -0.847656 8.328125 -4.484375 C 4.367188 -8.117188 2.390625 -12.820312 2.390625 -18.59375 C 2.390625 -24.414062 4.378906 -29.144531 8.359375 -32.78125 Z M 15.609375 -18.59375 C 15.609375 -16.351562 16.304688 -14.535156 17.703125 -13.140625 C 19.046875 -11.703125 20.835938 -10.984375 23.078125 -10.984375 C 25.316406 -10.984375 27.117188 -11.691406 28.484375 -13.109375 C 29.859375 -14.523438 30.546875 -16.351562 30.546875 -18.59375 C 30.546875 -20.832031 29.859375 -22.660156 28.484375 -24.078125 C 27.117188 -25.492188 25.316406 -26.203125 23.078125 -26.203125 C 20.835938 -26.203125 19.03125 -25.492188 17.65625 -24.078125 C 16.289062 -22.660156 15.609375 -20.832031 15.609375 -18.59375 Z M 15.609375 -18.59375 "/></g></g></g><g fill="#ffffff" fill-opacity="1"><g transform="translate(552.283902, 226.615259)"><g><path d="M 17.03125 -37.265625 L 17.03125 -33 C 19.8125 -36.488281 23.566406 -38.234375 28.296875 -38.234375 C 32.378906 -38.234375 35.691406 -36.835938 38.234375 -34.046875 C 40.773438 -31.265625 42.046875 -27.582031 42.046875 -23 L 42.046875 0 L 28.890625 0 L 28.890625 -19.34375 C 28.890625 -23.875 27.050781 -26.140625 23.375 -26.140625 C 21.53125 -26.140625 20.046875 -25.539062 18.921875 -24.34375 C 17.804688 -23.144531 17.25 -21.453125 17.25 -19.265625 L 17.25 0 L 4.109375 0 L 4.109375 -37.265625 Z M 17.03125 -37.265625 "/></g></g></g><g fill="#ffffff" fill-opacity="1"><g transform="translate(598.057346, 226.615259)"><g><path d="M 2.390625 -18.59375 C 2.390625 -24.269531 4.117188 -28.960938 7.578125 -32.671875 C 11.035156 -36.378906 15.226562 -38.234375 20.15625 -38.234375 C 24.539062 -38.234375 27.976562 -36.765625 30.46875 -33.828125 L 30.46875 -52.265625 L 43.609375 -52.265625 L 43.609375 0 L 30.609375 0 L 30.609375 -3.578125 C 28.117188 -0.546875 24.632812 0.96875 20.15625 0.96875 C 15.226562 0.96875 11.035156 -0.867188 7.578125 -4.546875 C 4.117188 -8.234375 2.390625 -12.914062 2.390625 -18.59375 Z M 15.6875 -18.59375 C 15.6875 -16.351562 16.378906 -14.535156 17.765625 -13.140625 C 19.109375 -11.703125 20.898438 -10.984375 23.140625 -10.984375 C 25.390625 -10.984375 27.195312 -11.691406 28.5625 -13.109375 C 29.925781 -14.523438 30.609375 -16.351562 30.609375 -18.59375 C 30.609375 -20.832031 29.925781 -22.660156 28.5625 -24.078125 C 27.195312 -25.492188 25.390625 -26.203125 23.140625 -26.203125 C 20.898438 -26.203125 19.097656 -25.492188 17.734375 -24.078125 C 16.367188 -22.660156 15.6875 -20.832031 15.6875 -18.59375 Z M 15.6875 -18.59375 "/></g></g></g><g fill="#ffffff" fill-opacity="1"><g transform="translate(645.846902, 226.615259)"><g/></g></g><g fill="#ffffff" fill-opacity="1"><g transform="translate(662.946574, 226.615259)"><g><path d="M 17.03125 -37.265625 L 17.03125 -33 C 19.8125 -36.488281 23.394531 -38.234375 27.78125 -38.234375 C 30.21875 -38.234375 32.40625 -37.632812 34.34375 -36.4375 C 36.289062 -35.238281 37.835938 -33.570312 38.984375 -31.4375 C 41.867188 -35.96875 45.972656 -38.234375 51.296875 -38.234375 C 55.179688 -38.234375 58.351562 -36.835938 60.8125 -34.046875 C 63.28125 -31.265625 64.515625 -27.582031 64.515625 -23 L 64.515625 0 L 51.375 0 L 51.375 -19.34375 C 51.375 -23.875 49.734375 -26.140625 46.453125 -26.140625 C 44.804688 -26.140625 43.457031 -25.539062 42.40625 -24.34375 C 41.363281 -23.144531 40.84375 -21.453125 40.84375 -19.265625 L 40.84375 0 L 27.703125 0 L 27.703125 -19.34375 C 27.703125 -23.875 26.082031 -26.140625 22.84375 -26.140625 C 21.207031 -26.140625 19.863281 -25.539062 18.8125 -24.34375 C 17.769531 -23.144531 17.25 -21.453125 17.25 -19.265625 L 17.25 0 L 4.109375 0 L 4.109375 -37.265625 Z M 17.03125 -37.265625 "/></g></g></g><g fill="#ffffff" fill-opacity="1"><g transform="translate(731.121332, 226.615259)"><g><path d="M 8.359375 -32.78125 C 12.296875 -36.414062 17.203125 -38.234375 23.078125 -38.234375 C 28.898438 -38.234375 33.800781 -36.414062 37.78125 -32.78125 C 41.757812 -29.144531 43.75 -24.414062 43.75 -18.59375 C 43.75 -12.820312 41.757812 -8.117188 37.78125 -4.484375 C 33.800781 -0.847656 28.898438 0.96875 23.078125 0.96875 C 17.203125 0.96875 12.285156 -0.847656 8.328125 -4.484375 C 4.367188 -8.117188 2.390625 -12.820312 2.390625 -18.59375 C 2.390625 -24.414062 4.378906 -29.144531 8.359375 -32.78125 Z M 15.609375 -18.59375 C 15.609375 -16.351562 16.304688 -14.535156 17.703125 -13.140625 C 19.046875 -11.703125 20.835938 -10.984375 23.078125 -10.984375 C 25.316406 -10.984375 27.117188 -11.691406 28.484375 -13.109375 C 29.859375 -14.523438 30.546875 -16.351562 30.546875 -18.59375 C 30.546875 -20.832031 29.859375 -22.660156 28.484375 -24.078125 C 27.117188 -25.492188 25.316406 -26.203125 23.078125 -26.203125 C 20.835938 -26.203125 19.03125 -25.492188 17.65625 -24.078125 C 16.289062 -22.660156 15.609375 -20.832031 15.609375 -18.59375 Z M 15.609375 -18.59375 "/></g></g></g><g fill="#ffffff" fill-opacity="1"><g transform="translate(777.268085, 226.615259)"><g><path d="M 2.390625 -18.59375 C 2.390625 -24.269531 4.117188 -28.960938 7.578125 -32.671875 C 11.035156 -36.378906 15.226562 -38.234375 20.15625 -38.234375 C 24.539062 -38.234375 27.976562 -36.765625 30.46875 -33.828125 L 30.46875 -52.265625 L 43.609375 -52.265625 L 43.609375 0 L 30.609375 0 L 30.609375 -3.578125 C 28.117188 -0.546875 24.632812 0.96875 20.15625 0.96875 C 15.226562 0.96875 11.035156 -0.867188 7.578125 -4.546875 C 4.117188 -8.234375 2.390625 -12.914062 2.390625 -18.59375 Z M 15.6875 -18.59375 C 15.6875 -16.351562 16.378906 -14.535156 17.765625 -13.140625 C 19.109375 -11.703125 20.898438 -10.984375 23.140625 -10.984375 C 25.390625 -10.984375 27.195312 -11.691406 28.5625 -13.109375 C 29.925781 -14.523438 30.609375 -16.351562 30.609375 -18.59375 C 30.609375 -20.832031 29.925781 -22.660156 28.5625 -24.078125 C 27.195312 -25.492188 25.390625 -26.203125 23.140625 -26.203125 C 20.898438 -26.203125 19.097656 -25.492188 17.734375 -24.078125 C 16.367188 -22.660156 15.6875 -20.832031 15.6875 -18.59375 Z M 15.6875 -18.59375 "/></g></g></g><g fill="#ffffff" fill-opacity="1"><g transform="translate(825.057641, 226.615259)"><g><path d="M 8.140625 -32.625 C 11.921875 -36.363281 16.800781 -38.234375 22.78125 -38.234375 C 28.550781 -38.234375 33.175781 -36.476562 36.65625 -32.96875 C 40.144531 -29.457031 41.890625 -24.738281 41.890625 -18.8125 C 41.890625 -17.519531 41.816406 -16.453125 41.671875 -15.609375 L 15.453125 -15.609375 C 16.398438 -11.378906 19.660156 -9.265625 25.234375 -9.265625 C 29.515625 -9.265625 33.921875 -10.285156 38.453125 -12.328125 L 38.453125 -2.015625 C 34.171875 -0.0234375 29.414062 0.96875 24.1875 0.96875 C 17.375 0.96875 12.035156 -0.722656 8.171875 -4.109375 C 4.316406 -7.492188 2.390625 -12.148438 2.390625 -18.078125 C 2.390625 -24.046875 4.304688 -28.894531 8.140625 -32.625 Z M 15.53125 -23 L 29.046875 -23 C 28.203125 -26.78125 26.035156 -28.671875 22.546875 -28.671875 C 18.816406 -28.671875 16.476562 -26.78125 15.53125 -23 Z M 15.53125 -23 "/></g></g></g><g fill="#ffffff" fill-opacity="1"><g transform="translate(868.964313, 226.615259)"><g><path d="M 17.25 0 L 4.109375 0 L 4.109375 -52.265625 L 17.25 -52.265625 Z M 17.25 0 "/></g></g></g><g fill="#ffffff" fill-opacity="1"><g transform="translate(890.305997, 226.615259)"><g/></g></g><g fill="#ffffff" fill-opacity="1"><g transform="translate(-0.616798, 331.003802)"><g><path d="M 4.109375 -37.265625 L 17.171875 -37.265625 L 17.171875 -33.75 C 19.710938 -36.738281 23.195312 -38.234375 27.625 -38.234375 C 32.550781 -38.234375 36.734375 -36.378906 40.171875 -32.671875 C 43.609375 -28.960938 45.328125 -24.269531 45.328125 -18.59375 C 45.328125 -12.914062 43.609375 -8.234375 40.171875 -4.546875 C 36.734375 -0.867188 32.550781 0.96875 27.625 0.96875 C 23.195312 0.96875 19.738281 -0.5 17.25 -3.4375 L 17.25 15.6875 L 4.109375 15.6875 Z M 17.09375 -18.59375 C 17.09375 -16.351562 17.789062 -14.535156 19.1875 -13.140625 C 20.53125 -11.703125 22.320312 -10.984375 24.5625 -10.984375 C 26.800781 -10.984375 28.601562 -11.691406 29.96875 -13.109375 C 31.34375 -14.523438 32.03125 -16.351562 32.03125 -18.59375 C 32.03125 -20.832031 31.34375 -22.660156 29.96875 -24.078125 C 28.601562 -25.492188 26.800781 -26.203125 24.5625 -26.203125 C 22.320312 -26.203125 20.515625 -25.492188 19.140625 -24.078125 C 17.773438 -22.660156 17.09375 -20.832031 17.09375 -18.59375 Z M 17.09375 -18.59375 "/></g></g></g><g fill="#ffffff" fill-opacity="1"><g transform="translate(47.098089, 331.003802)"><g><path d="M 8.359375 -32.78125 C 12.296875 -36.414062 17.203125 -38.234375 23.078125 -38.234375 C 28.898438 -38.234375 33.800781 -36.414062 37.78125 -32.78125 C 41.757812 -29.144531 43.75 -24.414062 43.75 -18.59375 C 43.75 -12.820312 41.757812 -8.117188 37.78125 -4.484375 C 33.800781 -0.847656 28.898438 0.96875 23.078125 0.96875 C 17.203125 0.96875 12.285156 -0.847656 8.328125 -4.484375 C 4.367188 -8.117188 2.390625 -12.820312 2.390625 -18.59375 C 2.390625 -24.414062 4.378906 -29.144531 8.359375 -32.78125 Z M 15.609375 -18.59375 C 15.609375 -16.351562 16.304688 -14.535156 17.703125 -13.140625 C 19.046875 -11.703125 20.835938 -10.984375 23.078125 -10.984375 C 25.316406 -10.984375 27.117188 -11.691406 28.484375 -13.109375 C 29.859375 -14.523438 30.546875 -16.351562 30.546875 -18.59375 C 30.546875 -20.832031 29.859375 -22.660156 28.484375 -24.078125 C 27.117188 -25.492188 25.316406 -26.203125 23.078125 -26.203125 C 20.835938 -26.203125 19.03125 -25.492188 17.65625 -24.078125 C 16.289062 -22.660156 15.609375 -20.832031 15.609375 -18.59375 Z M 15.609375 -18.59375 "/></g></g></g><g fill="#ffffff" fill-opacity="1"><g transform="translate(93.24488, 331.003802)"><g><path d="M 0.59375 -37.265625 L 14.40625 -37.265625 L 20.53125 -15.3125 L 27.1875 -37.265625 L 38.75 -37.265625 L 45.328125 -15.453125 L 51.453125 -37.265625 L 65.265625 -37.265625 L 53.015625 0 L 39.5 0 L 32.9375 -20.6875 L 26.4375 0 L 12.84375 0 Z M 0.59375 -37.265625 "/></g></g></g><g fill="#ffffff" fill-opacity="1"><g transform="translate(159.104868, 331.003802)"><g><path d="M 8.140625 -32.625 C 11.921875 -36.363281 16.800781 -38.234375 22.78125 -38.234375 C 28.550781 -38.234375 33.175781 -36.476562 36.65625 -32.96875 C 40.144531 -29.457031 41.890625 -24.738281 41.890625 -18.8125 C 41.890625 -17.519531 41.816406 -16.453125 41.671875 -15.609375 L 15.453125 -15.609375 C 16.398438 -11.378906 19.660156 -9.265625 25.234375 -9.265625 C 29.515625 -9.265625 33.921875 -10.285156 38.453125 -12.328125 L 38.453125 -2.015625 C 34.171875 -0.0234375 29.414062 0.96875 24.1875 0.96875 C 17.375 0.96875 12.035156 -0.722656 8.171875 -4.109375 C 4.316406 -7.492188 2.390625 -12.148438 2.390625 -18.078125 C 2.390625 -24.046875 4.304688 -28.894531 8.140625 -32.625 Z M 15.53125 -23 L 29.046875 -23 C 28.203125 -26.78125 26.035156 -28.671875 22.546875 -28.671875 C 18.816406 -28.671875 16.476562 -26.78125 15.53125 -23 Z M 15.53125 -23 "/></g></g></g><g fill="#ffffff" fill-opacity="1"><g transform="translate(203.01152, 331.003802)"><g><path d="M 17.03125 -37.265625 L 17.03125 -32.40625 C 19.414062 -36.238281 22.972656 -38.15625 27.703125 -38.15625 C 28.847656 -38.15625 29.84375 -38.03125 30.6875 -37.78125 L 30.6875 -25.53125 C 29.34375 -25.78125 28.050781 -25.90625 26.8125 -25.90625 C 20.4375 -25.90625 17.25 -22.222656 17.25 -14.859375 L 17.25 0 L 4.109375 0 L 4.109375 -37.265625 Z M 17.03125 -37.265625 "/></g></g></g><g fill="#ffffff" fill-opacity="1"><g transform="translate(235.045453, 331.003802)"><g><path d="M 8.140625 -32.625 C 11.921875 -36.363281 16.800781 -38.234375 22.78125 -38.234375 C 28.550781 -38.234375 33.175781 -36.476562 36.65625 -32.96875 C 40.144531 -29.457031 41.890625 -24.738281 41.890625 -18.8125 C 41.890625 -17.519531 41.816406 -16.453125 41.671875 -15.609375 L 15.453125 -15.609375 C 16.398438 -11.378906 19.660156 -9.265625 25.234375 -9.265625 C 29.515625 -9.265625 33.921875 -10.285156 38.453125 -12.328125 L 38.453125 -2.015625 C 34.171875 -0.0234375 29.414062 0.96875 24.1875 0.96875 C 17.375 0.96875 12.035156 -0.722656 8.171875 -4.109375 C 4.316406 -7.492188 2.390625 -12.148438 2.390625 -18.078125 C 2.390625 -24.046875 4.304688 -28.894531 8.140625 -32.625 Z M 15.53125 -23 L 29.046875 -23 C 28.203125 -26.78125 26.035156 -28.671875 22.546875 -28.671875 C 18.816406 -28.671875 16.476562 -26.78125 15.53125 -23 Z M 15.53125 -23 "/></g></g></g><g fill="#ffffff" fill-opacity="1"><g transform="translate(278.952105, 331.003802)"><g><path d="M 2.390625 -18.59375 C 2.390625 -24.269531 4.117188 -28.960938 7.578125 -32.671875 C 11.035156 -36.378906 15.226562 -38.234375 20.15625 -38.234375 C 24.539062 -38.234375 27.976562 -36.765625 30.46875 -33.828125 L 30.46875 -52.265625 L 43.609375 -52.265625 L 43.609375 0 L 30.609375 0 L 30.609375 -3.578125 C 28.117188 -0.546875 24.632812 0.96875 20.15625 0.96875 C 15.226562 0.96875 11.035156 -0.867188 7.578125 -4.546875 C 4.117188 -8.234375 2.390625 -12.914062 2.390625 -18.59375 Z M 15.6875 -18.59375 C 15.6875 -16.351562 16.378906 -14.535156 17.765625 -13.140625 C 19.109375 -11.703125 20.898438 -10.984375 23.140625 -10.984375 C 25.390625 -10.984375 27.195312 -11.691406 28.5625 -13.109375 C 29.925781 -14.523438 30.609375 -16.351562 30.609375 -18.59375 C 30.609375 -20.832031 29.925781 -22.660156 28.5625 -24.078125 C 27.195312 -25.492188 25.390625 -26.203125 23.140625 -26.203125 C 20.898438 -26.203125 19.097656 -25.492188 17.734375 -24.078125 C 16.367188 -22.660156 15.6875 -20.832031 15.6875 -18.59375 Z M 15.6875 -18.59375 "/></g></g></g><g fill="#ffffff" fill-opacity="1"><g transform="translate(326.74168, 331.003802)"><g/></g></g><g fill="#ffffff" fill-opacity="1"><g transform="translate(343.841352, 331.003802)"><g><path d="M 17.25 -52.265625 L 17.25 -33.828125 C 19.738281 -36.765625 23.195312 -38.234375 27.625 -38.234375 C 32.550781 -38.234375 36.734375 -36.378906 40.171875 -32.671875 C 43.609375 -28.960938 45.328125 -24.269531 45.328125 -18.59375 C 45.328125 -12.914062 43.609375 -8.234375 40.171875 -4.546875 C 36.734375 -0.867188 32.550781 0.96875 27.625 0.96875 C 23.195312 0.96875 19.710938 -0.523438 17.171875 -3.515625 L 17.171875 0 L 4.109375 0 L 4.109375 -52.265625 Z M 19.1875 -13.140625 C 20.53125 -11.703125 22.320312 -10.984375 24.5625 -10.984375 C 26.800781 -10.984375 28.601562 -11.691406 29.96875 -13.109375 C 31.34375 -14.523438 32.03125 -16.351562 32.03125 -18.59375 C 32.03125 -20.832031 31.34375 -22.660156 29.96875 -24.078125 C 28.601562 -25.492188 26.800781 -26.203125 24.5625 -26.203125 C 22.320312 -26.203125 20.515625 -25.492188 19.140625 -24.078125 C 17.773438 -22.660156 17.09375 -20.832031 17.09375 -18.59375 C 17.09375 -16.351562 17.789062 -14.535156 19.1875 -13.140625 Z M 19.1875 -13.140625 "/></g></g></g><g fill="#ffffff" fill-opacity="1"><g transform="translate(391.556239, 331.003802)"><g><path d="M 0.296875 -37.265625 L 14.484375 -37.265625 L 21.65625 -14.265625 L 28.890625 -37.265625 L 43.015625 -37.265625 L 22.40625 15.6875 L 7.84375 15.6875 L 14.484375 -0.375 Z M 0.296875 -37.265625 "/></g></g></g><g fill="#ffffff" fill-opacity="1"><g transform="translate(434.865516, 331.003802)"><g/></g></g><g fill="#ffffff" fill-opacity="1"><g transform="translate(451.965227, 331.003802)"><g><path d="M 35.390625 -28.53125 L 19.9375 -11.046875 L 35.46875 -11.046875 L 35.46875 0 L 2.3125 0 L 2.3125 -8.734375 L 17.84375 -26.203125 L 2.609375 -26.203125 L 2.609375 -37.265625 L 35.390625 -37.265625 Z M 35.390625 -28.53125 "/></g></g></g><g fill="#ffffff" fill-opacity="1"><g transform="translate(489.748856, 331.003802)"><g><path d="M 4.859375 0 L 4.859375 -52.265625 L 18.75 -52.265625 L 18.75 -31.515625 L 36.734375 -52.265625 L 53.171875 -52.265625 L 33.234375 -29.640625 L 53.6875 0 L 37.109375 0 L 23.96875 -19.1875 L 18.75 -13.21875 L 18.75 0 Z M 4.859375 0 "/></g></g></g><g fill="#ffffff" fill-opacity="1"><g transform="translate(543.661454, 331.003802)"><g><path d="M 6.421875 -35.015625 C 9.359375 -37.160156 13.585938 -38.234375 19.109375 -38.234375 C 23.640625 -38.234375 28.046875 -37.535156 32.328125 -36.140625 L 32.328125 -25.84375 C 28.347656 -27.726562 24.242188 -28.671875 20.015625 -28.671875 C 16.679688 -28.671875 15.015625 -27.925781 15.015625 -26.4375 C 15.015625 -25.632812 15.695312 -25 17.0625 -24.53125 C 18.425781 -24.0625 20.09375 -23.625 22.0625 -23.21875 C 24.03125 -22.820312 26 -22.273438 27.96875 -21.578125 C 29.9375 -20.878906 31.601562 -19.671875 32.96875 -17.953125 C 34.332031 -16.234375 35.015625 -14.082031 35.015625 -11.5 C 35.015625 -7.613281 33.519531 -4.5625 30.53125 -2.34375 C 27.550781 -0.132812 23.222656 0.96875 17.546875 0.96875 C 12.222656 0.96875 7.394531 0.0703125 3.0625 -1.71875 L 3.0625 -12.46875 C 4.65625 -11.425781 6.796875 -10.539062 9.484375 -9.8125 C 12.171875 -9.09375 14.609375 -8.734375 16.796875 -8.734375 C 20.234375 -8.734375 21.953125 -9.582031 21.953125 -11.28125 C 21.953125 -12.175781 21.265625 -12.894531 19.890625 -13.4375 C 18.523438 -13.988281 16.859375 -14.488281 14.890625 -14.9375 C 12.929688 -15.382812 10.96875 -15.957031 9 -16.65625 C 7.03125 -17.351562 5.359375 -18.519531 3.984375 -20.15625 C 2.617188 -21.800781 1.9375 -23.867188 1.9375 -26.359375 C 1.9375 -29.941406 3.429688 -32.828125 6.421875 -35.015625 Z M 6.421875 -35.015625 "/></g></g></g><g fill="#ffffff" fill-opacity="1"><g transform="translate(580.175665, 331.003802)"><g><path d="M 0.296875 -37.265625 L 14.484375 -37.265625 L 21.65625 -14.265625 L 28.890625 -37.265625 L 43.015625 -37.265625 L 22.40625 15.6875 L 7.84375 15.6875 L 14.484375 -0.375 Z M 0.296875 -37.265625 "/></g></g></g><g fill="#ffffff" fill-opacity="1"><g transform="translate(623.484943, 331.003802)"><g><path d="M 17.03125 -37.265625 L 17.03125 -33 C 19.8125 -36.488281 23.566406 -38.234375 28.296875 -38.234375 C 32.378906 -38.234375 35.691406 -36.835938 38.234375 -34.046875 C 40.773438 -31.265625 42.046875 -27.582031 42.046875 -23 L 42.046875 0 L 28.890625 0 L 28.890625 -19.34375 C 28.890625 -23.875 27.050781 -26.140625 23.375 -26.140625 C 21.53125 -26.140625 20.046875 -25.539062 18.921875 -24.34375 C 17.804688 -23.144531 17.25 -21.453125 17.25 -19.265625 L 17.25 0 L 4.109375 0 L 4.109375 -37.265625 Z M 17.03125 -37.265625 "/></g></g></g><g fill="#ffffff" fill-opacity="1"><g transform="translate(669.258349, 331.003802)"><g><path d="M 8.21875 -33 C 12.09375 -36.488281 17.316406 -38.234375 23.890625 -38.234375 C 27.828125 -38.234375 31.4375 -37.5625 34.71875 -36.21875 L 34.71875 -23.890625 C 31.632812 -25.429688 28.472656 -26.203125 25.234375 -26.203125 C 22.296875 -26.203125 19.992188 -25.519531 18.328125 -24.15625 C 16.660156 -22.789062 15.828125 -20.9375 15.828125 -18.59375 C 15.828125 -16.300781 16.660156 -14.457031 18.328125 -13.0625 C 19.992188 -11.675781 22.296875 -10.984375 25.234375 -10.984375 C 28.421875 -10.984375 31.582031 -11.800781 34.71875 -13.4375 L 34.71875 -0.96875 C 31.382812 0.320312 27.773438 0.96875 23.890625 0.96875 C 17.316406 0.96875 12.085938 -0.785156 8.203125 -4.296875 C 4.328125 -7.804688 2.390625 -12.570312 2.390625 -18.59375 C 2.390625 -24.664062 4.332031 -29.46875 8.21875 -33 Z M 8.21875 -33 "/></g></g></g><g fill="#ffffff" fill-opacity="1"><g transform="translate(706.432581, 331.003802)"><g/></g></g><g fill="#ffffff" fill-opacity="1"><g transform="translate(723.532273, 331.003802)"><g/></g></g><g fill="#ffffff" fill-opacity="1"><g transform="translate(740.631964, 331.003802)"><g/></g></g><g fill="#ffffff" fill-opacity="1"><g transform="translate(757.731655, 331.003802)"><g/></g></g><g fill="#ffffff" fill-opacity="1"><g transform="translate(774.831347, 331.003802)"><g/></g></g><g fill="#ffffff" fill-opacity="1"><g transform="translate(791.931038, 331.003802)"><g/></g></g><g fill="#ffffff" fill-opacity="1"><g transform="translate(809.030729, 331.003802)"><g/></g></g><g fill="#ffffff" fill-opacity="1"><g transform="translate(826.130421, 331.003802)"><g/></g></g><g fill="#ffffff" fill-opacity="1"><g transform="translate(843.230112, 331.003802)"><g/></g></g><g fill="#ffffff" fill-opacity="1"><g transform="translate(860.329804, 331.003802)"><g/></g></g><g fill="#ffffff" fill-opacity="1"><g transform="translate(877.429495, 331.003802)"><g/></g></g></svg>