<?xml version="1.0" encoding="UTF-8"?>
<svg width="30px" height="30px" viewBox="0 0 30 30" version="1.1" xmlns="http://www.w3.org/2000/svg" xmlns:xlink="http://www.w3.org/1999/xlink">
    <!-- Generator: Sketch 52 (66869) - http://www.bohemiancoding.com/sketch -->
    <title>Path</title>
    <desc>Created with Sketch.</desc>
    <g id="Page-1" stroke="none" stroke-width="1" fill="none" fill-rule="evenodd">
        <g id="banner2" transform="translate(-220.000000, -425.000000)">
            <g id="Group-8" transform="translate(75.000000, 381.000000)">
                <g id="twitter-fill" transform="translate(145.000000, 44.000000)">
                    <polygon id="Path" points="0 0 30 0 30 30 0 30"></polygon>
                    <path d="M27.7025,7.07 C26.7481962,7.49211716 25.7362001,7.76934173 24.7,7.8925 C25.7921885,7.23929165 26.6096319,6.21126778 27,5 C25.975,5.61 24.85125,6.0375 23.68,6.26875 C22.0623119,4.53789939 19.482847,4.11136129 17.3940828,5.22931616 C15.3053187,6.34727102 14.229536,8.73018219 14.7725,11.03625 C10.5687782,10.8255541 6.65217986,8.83999322 3.9975,5.57375 C3.53286265,6.3718129 3.28869393,7.27903341 3.29,8.2025 C3.29,10.015 4.2125,11.61625 5.615,12.55375 C4.78501101,12.5276203 3.9732905,12.3034757 3.2475,11.9 L3.2475,11.965 C3.24801649,14.4537947 5.00189302,16.597654 7.44125,17.09125 C6.67076879,17.3000461 5.86288336,17.3308227 5.07875,17.18125 C5.76265873,19.3114788 7.72556428,20.7709722 9.9625,20.8125 C7.77242698,22.5325242 4.988425,23.3113792 2.22375,22.9775 C4.61337223,24.514291 7.39512102,25.3301549 10.23625,25.3275 C19.8525,25.3275 25.11125,17.36125 25.11125,10.4525 C25.11125,10.2275 25.105,10 25.095,9.7775 C26.1185801,9.03770958 27.0019984,8.12127424 27.70375,7.07125 L27.7025,7.07 Z" id="Path" fill="#FFFFFF"></path>
                </g>
            </g>
        </g>
    </g>
</svg>